<?xml version="1.0" encoding="utf-8"?>
<!-- Generator: Adobe Illustrator 18.1.1, SVG Export Plug-In . SVG Version: 6.00 Build 0)  -->
<svg version="1.1" id="data" xmlns="http://www.w3.org/2000/svg" xmlns:xlink="http://www.w3.org/1999/xlink" x="0px" y="0px"
	 viewBox="0 0 1280 800" enable-background="new 0 0 1280 800" xml:space="preserve">
<g>
	<path fill="none" stroke="#000000" stroke-width="5" stroke-miterlimit="10" d="M449.1,464.3c-31.1,0-56.3,25.2-56.3,56.3l0,0"/>
	<path fill="none" stroke="#000000" stroke-width="5" stroke-miterlimit="10" d="M513.4,520.6c0-35.5-28.8-64.2-64.2-64.2
		c0,0,0,0,0,0"/>
	<path fill="none" stroke="#000000" stroke-width="5" stroke-miterlimit="10" d="M649.2,458.3c-34.4,0-62.3,27.9-62.3,62.3l0,0"/>
	<path fill="none" stroke="#000000" stroke-width="5" stroke-miterlimit="10" d="M731.5,520.6c0-45.5-36.9-82.4-82.4-82.4
		c0,0,0,0,0,0"/>
	<path fill="none" stroke="#000000" stroke-width="5" stroke-miterlimit="10" d="M849.2,439.4c-44.8,0-81.1,36.3-81.1,81.1l0,0"/>
	<path fill="none" stroke="#000000" stroke-width="5" stroke-miterlimit="10" d="M931,520.6c0-45.1-36.6-81.7-81.7-81.7c0,0,0,0,0,0
		"/>
	<path fill="none" stroke="#000000" stroke-width="5" stroke-miterlimit="10" d="M1049.3,455.4c-36,0-65.2,29.2-65.2,65.2l0,0"/>
	<path fill="none" stroke="#000000" stroke-width="5" stroke-miterlimit="10" d="M1109,520.6c0-33-26.7-59.7-59.7-59.7c0,0,0,0,0,0"
		/>
</g>
<g>
	<path fill="none" stroke="#E2D3CB" stroke-width="4" stroke-miterlimit="10" d="M449.2,484.2c-20.1,0-36.3,16.3-36.3,36.3l0,0"/>
	<path fill="none" stroke="#E2D3CB" stroke-width="4" stroke-miterlimit="10" d="M482.6,520.6c0-18.5-15-33.4-33.4-33.4c0,0,0,0,0,0
		"/>
	<path fill="none" stroke="#E2D3CB" stroke-width="4" stroke-miterlimit="10" d="M649.2,476.8c-24.2,0-43.7,19.6-43.7,43.7l0,0"/>
	<path fill="none" stroke="#E2D3CB" stroke-width="4" stroke-miterlimit="10" d="M696.2,520.6c0-26-21.1-47-47-47l0,0"/>
	<path fill="none" stroke="#E2D3CB" stroke-width="4" stroke-miterlimit="10" d="M849.2,472c-26.8,0-48.6,21.8-48.6,48.6l0,0"/>
	<path fill="none" stroke="#E2D3CB" stroke-width="4" stroke-miterlimit="10" d="M891.4,520.6c0-23.3-18.9-42.2-42.2-42.2l0,0"/>
	<path fill="none" stroke="#E2D3CB" stroke-width="4" stroke-miterlimit="10" d="M1049.3,485.7c-19.2,0-34.8,15.6-34.8,34.8l0,0"/>
	<path fill="none" stroke="#E2D3CB" stroke-width="4" stroke-miterlimit="10" d="M1077.6,520.6c0-15.6-12.7-28.3-28.3-28.3l0,0"/>
</g>
<g>
	<path fill="none" stroke="#8A8786" stroke-width="4" stroke-miterlimit="10" d="M449.1,673c0,0-12.9,0-12.9,0
		c-16.9,0-30.5-13.7-30.5-30.5c0-16.9,13.7-30.5,30.5-30.5h12.9"/>
	<path fill="none" stroke="#8A8786" stroke-width="4" stroke-miterlimit="10" d="M449.1,601.6H462v0c19.1,0,34.6,15.5,34.6,34.6
		s-15.5,34.6-34.6,34.6h-12.9"/>
	<path fill="none" stroke="#8A8786" stroke-width="4" stroke-miterlimit="10" d="M649.5,656.9c0,0-12.9,0-12.9,0
		c-22.5,0-40.8-18.3-40.8-40.8s18.3-40.8,40.8-40.8v0h12.9"/>
	<path fill="none" stroke="#8A8786" stroke-width="4" stroke-miterlimit="10" d="M649.5,557.5h12.9l0,0c26.4,0,47.7,21.4,47.7,47.7
		s-21.4,47.7-47.7,47.7h-12.9"/>
	<path fill="none" stroke="#8A8786" stroke-width="4" stroke-miterlimit="10" d="M849.3,673.9c0,0-12.9,0-12.9,0
		c-5.9,0-10.6-4.7-10.6-10.6s4.7-10.6,10.6-10.6v0h12.9"/>
	<path fill="none" stroke="#8A8786" stroke-width="4" stroke-miterlimit="10" d="M849.3,646.2h12.9c6.7,0,12.2,5.5,12.2,12.2
		s-5.5,12.2-12.2,12.2h-12.9"/>
	<path fill="none" stroke="#8A8786" stroke-width="4" stroke-miterlimit="10" d="M1049.3,685.8c0,0-12.9,0-12.9,0
		c-12.1,0-21.8-9.8-21.8-21.8s9.8-21.8,21.8-21.8v0h12.9"/>
	<path fill="none" stroke="#8A8786" stroke-width="4" stroke-miterlimit="10" d="M1049.3,634.6h12.9v0c14.2,0,25.8,11.5,25.8,25.8
		s-11.5,25.8-25.8,25.8h-12.9"/>
</g>
<rect fill="none" stroke="#000000" stroke-miterlimit="10" width="1280" height="800"/>
</svg>
