<?xml version="1.0" encoding="utf-8"?>
<!-- Generator: Adobe Illustrator 18.1.1, SVG Export Plug-In . SVG Version: 6.00 Build 0)  -->
<svg version="1.1" id="data" xmlns="http://www.w3.org/2000/svg" xmlns:xlink="http://www.w3.org/1999/xlink" x="0px" y="0px"
	 viewBox="0 0 1280 800" enable-background="new 0 0 1280 800" xml:space="preserve">
<g>
	<path fill="none" stroke="#F2A51E" stroke-width="4" stroke-miterlimit="10" d="M448.4,687.3h12.9c23.9,0,43.3-19.4,43.3-43.3
		s-19.4-43.3-43.3-43.3h-12.9"/>
	<path fill="none" stroke="#F2A51E" stroke-width="4" stroke-miterlimit="10" d="M448.4,688.2l-12.9,0c-22.6,0-40.9-18.3-40.9-40.9
		s18.3-40.9,40.9-40.9h12.9"/>
	<path fill="none" stroke="#F2A51E" stroke-width="4" stroke-miterlimit="10" d="M848.5,683h12.9c12.6,0,22.8-10.2,22.8-22.8
		s-10.2-22.8-22.8-22.8l0,0h-12.9"/>
	<path fill="none" stroke="#F2A51E" stroke-width="4" stroke-miterlimit="10" d="M848.5,685.4l-12.9,0c-11.5,0-20.9-9.4-20.9-20.9
		c0-11.5,9.4-20.9,20.9-20.9v0h12.9"/>
	<path fill="none" stroke="#F2A51E" stroke-width="4" stroke-miterlimit="10" d="M1048.7,690.2h12.9c14.6,0,26.4-11.8,26.4-26.4
		c0-14.6-11.8-26.4-26.4-26.4v0h-12.9"/>
	<path fill="none" stroke="#F2A51E" stroke-width="4" stroke-miterlimit="10" d="M1048.7,690.2l-12.9,0c-11.8,0-21.3-9.5-21.3-21.3
		s9.5-21.3,21.3-21.3v0h12.9"/>
	<path fill="none" stroke="#F2A51E" stroke-width="4" stroke-miterlimit="10" d="M648.5,677.7h12.9v0c37.4,0,67.7-30.3,67.7-67.7
		s-30.3-67.7-67.7-67.7h-12.9"/>
	<path fill="none" stroke="#F2A51E" stroke-width="4" stroke-miterlimit="10" d="M648.5,680.2l-12.9,0c-35.6,0-64.5-28.9-64.5-64.5
		s28.9-64.5,64.5-64.5V551h12.9"/>
</g>
<g>
	<path fill="none" stroke="#D83220" stroke-width="4" stroke-miterlimit="10" d="M648.5,678.6h-12.9v0c-20.9,0-37.8-16.9-37.8-37.8
		s16.9-37.8,37.8-37.8v0h12.9"/>
	<path fill="none" stroke="#D83220" stroke-width="4" stroke-miterlimit="10" d="M848.5,683.6h-12.9v0c-5.2,0-9.4-4.2-9.4-9.4
		c0-5.2,4.2-9.4,9.4-9.4v0h12.9"/>
	<path fill="none" stroke="#D83220" stroke-width="4" stroke-miterlimit="10" d="M1048.7,689.7h-12.9v0c-5.7,0-10.3-4.6-10.3-10.3
		s4.6-10.3,10.3-10.3v0h12.9"/>
	<path fill="none" stroke="#D83220" stroke-width="4" stroke-miterlimit="10" d="M1048.7,689h12.9v0c5.1,0,9.2-4.1,9.2-9.2
		s-4.1-9.2-9.2-9.2h-12.9"/>
	<path fill="none" stroke="#D83220" stroke-width="4" stroke-miterlimit="10" d="M848.5,683.6h12.9v0c5.2,0,9.4-4.2,9.4-9.4
		s-4.2-9.4-9.4-9.4h-12.9"/>
	<path fill="none" stroke="#D83220" stroke-width="4" stroke-miterlimit="10" d="M648.5,677.1h12.9c22.9,0,41.5-18.6,41.5-41.5
		S684.4,594,661.5,594v0h-12.9"/>
	<path fill="none" stroke="#D83220" stroke-width="4" stroke-miterlimit="10" d="M448.7,686.3h-12.9c-11.5,0-20.7-9.3-20.7-20.7
		c0-11.5,9.3-20.7,20.7-20.7v0h12.9"/>
	<path fill="none" stroke="#D83220" stroke-width="4" stroke-miterlimit="10" d="M448.4,685.3h12.9v0c11.6,0,21-9.4,21-21
		s-9.4-21-21-21h-12.9"/>
</g>
<g>
	<path fill="none" stroke="#000000" stroke-width="5" stroke-miterlimit="10" d="M448.5,498.7c-11.8,0-21.3,9.6-21.3,21.3l0,0"/>
	<path fill="none" stroke="#000000" stroke-width="5" stroke-miterlimit="10" d="M472.8,520.1c0-13.4-10.9-24.3-24.3-24.3l0,0"/>
</g>
<g>
	<path fill="none" stroke="#E2D3CB" stroke-width="4" stroke-miterlimit="10" d="M848.7,469.5c-28.3,0-51.2,22.9-51.2,51.2l0,0"/>
	<path fill="none" stroke="#E2D3CB" stroke-width="4" stroke-miterlimit="10" d="M892,520.7c0-23.9-19.4-43.3-43.3-43.3l0,0"/>
	<path fill="none" stroke="#E2D3CB" stroke-width="4" stroke-miterlimit="10" d="M1048.7,507.1c-7.5,0-13.6,6.1-13.6,13.6l0,0"/>
	<path fill="none" stroke="#E2D3CB" stroke-width="4" stroke-miterlimit="10" d="M1066.6,520.7c0-9.9-8-17.9-17.9-17.9l0,0"/>
	<path fill="none" stroke="#E2D3CB" stroke-width="4" stroke-miterlimit="10" d="M648.5,504c-8.9,0-16.1,7.2-16.1,16.1l0,0"/>
	<path fill="none" stroke="#E2D3CB" stroke-width="4" stroke-miterlimit="10" d="M664.6,520.1c0-8.9-7.2-16.1-16.1-16.1l0,0"/>
	<path fill="none" stroke="#E2D3CB" stroke-width="4" stroke-miterlimit="10" d="M448.5,503.6c-9.1,0-16.4,7.4-16.4,16.4l0,0"/>
	<path fill="none" stroke="#E2D3CB" stroke-width="4" stroke-miterlimit="10" d="M465.1,520.1c0-9.2-7.5-16.7-16.7-16.7l0,0"/>
</g>
<circle fill="#FFFFFF" stroke="#000000" stroke-width="2" stroke-miterlimit="10" cx="620.9" cy="493" r="2"/>
<circle fill="#FFFFFF" stroke="#000000" stroke-width="2" stroke-miterlimit="10" cx="675.7" cy="493.3" r="2"/>
<circle fill="#FFFFFF" stroke="#000000" stroke-width="2" stroke-miterlimit="10" cx="803.8" cy="475.6" r="2"/>
<circle fill="#FFFFFF" stroke="#000000" stroke-width="2" stroke-miterlimit="10" cx="893.8" cy="475.4" r="2"/>
<circle fill="#FFFFFF" stroke="#000000" stroke-width="2" stroke-miterlimit="10" cx="1027" cy="498.7" r="2"/>
<circle fill="#FFFFFF" stroke="#000000" stroke-width="2" stroke-miterlimit="10" cx="1070.9" cy="498.6" r="2"/>
</svg>
