<?xml version="1.0" encoding="utf-8"?>
<!-- Generator: Adobe Illustrator 18.1.1, SVG Export Plug-In . SVG Version: 6.00 Build 0)  -->
<svg version="1.1" id="data" xmlns="http://www.w3.org/2000/svg" xmlns:xlink="http://www.w3.org/1999/xlink" x="0px" y="0px"
	 viewBox="0 0 1280 800" enable-background="new 0 0 1280 800" xml:space="preserve">
<g>
	<path fill="none" stroke="#F2A51E" stroke-width="4" stroke-miterlimit="10" d="M449.1,684.1c0,0,12.9,0,12.9,0
		c16.6,0,30.1-13.5,30.1-30.1s-13.5-30.1-30.1-30.1v0h-12.9"/>
	<path fill="none" stroke="#F2A51E" stroke-width="4" stroke-miterlimit="10" d="M649.3,678.1h12.9v0c27.7,0,50.1-22.4,50.1-50.1
		c0-27.7-22.4-50.1-50.1-50.1v0h-12.9"/>
	<path fill="none" stroke="#F2A51E" stroke-width="4" stroke-miterlimit="10" d="M649.2,678.5h-12.9l0.1,0
		c-25.9,0-46.9-21-46.9-46.9c0-25.9,21-46.9,46.9-46.9l0,0h12.9"/>
	<path fill="none" stroke="#F2A51E" stroke-width="4" stroke-miterlimit="10" d="M449.1,685.5c0,0-12.9,0-12.9,0
		c-15,0-27.2-12.2-27.2-27.2c0-15,12.2-27.2,27.2-27.2l0,0h12.9"/>
	<path fill="none" stroke="#F2A51E" stroke-width="4" stroke-miterlimit="10" d="M849.3,678.7c0,0,12.9,0,12.9,0
		c11.2,0,20.2-9,20.2-20.2s-9-20.2-20.2-20.2l0,0h-12.9"/>
	<path fill="none" stroke="#F2A51E" stroke-width="4" stroke-miterlimit="10" d="M849.3,682.5h-12.9l0,0c-10.1,0-18.4-8.2-18.4-18.4
		s8.2-18.4,18.4-18.4c0,0,12.9,0,12.9,0"/>
	<path fill="none" stroke="#F2A51E" stroke-width="4" stroke-miterlimit="10" d="M1049.2,685.8c0,0,12.9,0,12.9,0
		c8.4,0,15.2-6.8,15.2-15.2s-6.8-15.2-15.2-15.2l0,0h-12.9"/>
	<path fill="none" stroke="#F2A51E" stroke-width="4" stroke-miterlimit="10" d="M1049.2,687.3h-12.9l0,0c-7.5,0-13.5-6.1-13.5-13.5
		c0-7.5,6.1-13.5,13.5-13.5l0,0h12.9"/>
</g>
<g>
	<path fill="none" stroke="#D83220" stroke-width="4" stroke-miterlimit="10" d="M849.3,680.4h-12.9v0c-7.2,0-13.1-5.8-13.1-13.1
		c0-7.2,5.8-13.1,13.1-13.1v0h12.9"/>
	<path fill="none" stroke="#D83220" stroke-width="4" stroke-miterlimit="10" d="M849.3,680.1h12.9v0c9.6,0,17.3-7.7,17.3-17.3
		s-7.7-17.3-17.3-17.3c0,0-12.9,0-12.9,0"/>
	<path fill="none" stroke="#D83220" stroke-width="4" stroke-miterlimit="10" d="M649.2,678.5h-12.9v0c-19.3,0-35-15.7-35-35
		c0-19.3,15.7-35,35-35v0h12.9"/>
	<g>
		<path fill="none" stroke="#D83220" stroke-width="4" stroke-miterlimit="10" d="M649.2,678.2c0,0,12.9,0,12.9,0
			c20.8,0,37.6-16.9,37.6-37.6S682.9,603,662.1,603h-12.9"/>
	</g>
	<path fill="none" stroke="#D83220" stroke-width="4" stroke-miterlimit="10" d="M449.1,684.3h-12.9v0c-10.6,0-19.2-8.6-19.2-19.2
		c0-10.6,8.6-19.2,19.2-19.2v0h12.9"/>
	<path fill="none" stroke="#D83220" stroke-width="4" stroke-miterlimit="10" d="M449.1,683.8c0,0,12.9,0,12.9,0
		c11.5,0,20.8-9.3,20.8-20.8c0-11.5-9.3-20.8-20.8-20.8h-12.9"/>
	<path fill="none" stroke="#D83220" stroke-width="4" stroke-miterlimit="10" d="M1049.4,686.1h-12.9v0c-5.8,0-10.5-4.7-10.5-10.5
		c0-5.8,4.7-10.5,10.5-10.5v0h12.9"/>
	<path fill="none" stroke="#D83220" stroke-width="4" stroke-miterlimit="10" d="M1049.4,685.5h12.9v0c6.3,0,11.5-5.1,11.5-11.5
		s-5.1-11.5-11.5-11.5c0,0-12.9,0-12.9,0"/>
</g>
<path fill="none" stroke="#000000" stroke-width="5" stroke-miterlimit="10" d="M449.1,500c-11.1,0-20,9-20,20l0,0"/>
<path fill="none" stroke="#000000" stroke-width="5" stroke-miterlimit="10" d="M469.5,520.1c0-11.3-9.2-20.4-20.4-20.4l0,0"/>
<path fill="none" stroke="#E2D3CB" stroke-width="4" stroke-miterlimit="10" d="M449.1,509c-6.1,0-11.1,5-11.1,11.1l0,0"/>
<path fill="none" stroke="#E2D3CB" stroke-width="4" stroke-miterlimit="10" d="M463.8,520.1c0-8.2-6.6-14.8-14.8-14.8l0,0"/>
<circle fill="#FFFFFF" stroke="#000000" stroke-width="2" stroke-miterlimit="10" cx="629.2" cy="500.4" r="2"/>
<circle fill="#FFFFFF" stroke="#E2D3CB" stroke-width="2" stroke-miterlimit="10" cx="639.2" cy="510.4" r="2"/>
<circle fill="#FFFFFF" stroke="#000000" stroke-width="2" stroke-miterlimit="10" cx="668.6" cy="500.4" r="2"/>
<circle fill="#FFFFFF" stroke="#000000" stroke-width="2" stroke-miterlimit="10" cx="809.5" cy="480.4" r="2"/>
<circle fill="#FFFFFF" stroke="#000000" stroke-width="2" stroke-miterlimit="10" cx="888.8" cy="480.4" r="2"/>
<circle fill="#FFFFFF" stroke="#E2D3CB" stroke-width="2" stroke-miterlimit="10" cx="658.6" cy="510.4" r="2"/>
<path fill="none" stroke="#E2D3CB" stroke-width="4" stroke-miterlimit="10" d="M849.2,490.5c-16.5,0-29.9,13.4-29.9,29.9l0,0"/>
<path fill="none" stroke="#E2D3CB" stroke-width="4" stroke-miterlimit="10" d="M892.4,520.3c0-23.9-19.4-43.3-43.3-43.3l0,0"/>
<path fill="none" stroke="#000000" stroke-width="5" stroke-miterlimit="10" d="M1049.3,492.5c-15.1,0-27.4,12.3-27.4,27.4l0,0"/>
<path fill="none" stroke="#000000" stroke-width="5" stroke-miterlimit="10" d="M1079,519.9c0-16.4-13.3-29.7-29.7-29.7l0,0"/>
<path fill="none" stroke="#E2D3CB" stroke-width="4" stroke-miterlimit="10" d="M1049.4,507.8c-6.7,0-12.1,5.4-12.1,12.1v0"/>
<path fill="none" stroke="#E2D3CB" stroke-width="4" stroke-miterlimit="10" d="M1069.5,519.9c0-11.1-9-20.2-20.2-20.2l0,0"/>
</svg>
