<?xml version="1.0" encoding="utf-8"?>
<!-- Generator: Adobe Illustrator 16.0.0, SVG Export Plug-In . SVG Version: 6.00 Build 0)  -->
<!DOCTYPE svg PUBLIC "-//W3C//DTD SVG 1.1//EN" "http://www.w3.org/Graphics/SVG/1.1/DTD/svg11.dtd">
<svg version="1.1" id="Women" xmlns="http://www.w3.org/2000/svg" xmlns:xlink="http://www.w3.org/1999/xlink" x="0px" y="0px"
	 width="32.77px" height="200px" viewBox="0 0 32.77 200" enable-background="new 0 0 32.77 200" xml:space="preserve">
<g>
	<path fill="#EF885A" d="M3.775,116.387c-0.311-1.475-0.539-3.801-0.539-6.166c0-3.375,0.576-5.549,1.885-7.176
		c0.998-1.357,2.533-2.173,4.57-2.173c2.498,0,4.688,1.667,5.686,4.421h0.08c0.611-2.482,2.648-5.39,6.492-5.39
		c2.227,0,3.916,0.893,5.184,2.208c1.652,1.826,2.422,4.771,2.422,9.039c0,2.328-0.152,4.111-0.309,5.236H3.775z M14.378,113.014
		v-3.064c0-3.57-1.844-5.664-4.344-5.664c-3.031,0-4.227,2.328-4.227,5.742c0,1.551,0.117,2.443,0.234,2.986H14.378z
		 M26.789,113.014c0.113-0.658,0.154-1.631,0.154-2.832c0-3.49-1.268-6.711-5.037-6.711c-3.531,0-4.992,3.064-4.992,6.75v2.793
		H26.789z"/>
	<path fill="#EF885A" d="M16.105,73.024c8.916,0,13.641,5.471,13.641,12.142c0,6.904-5.301,11.756-13.139,11.756
		c-8.225,0-13.604-5.162-13.604-12.145C3.003,77.642,8.421,73.024,16.105,73.024z M16.531,93.313c5.531,0,10.488-3.025,10.488-8.342
		c0-5.352-4.881-8.376-10.758-8.376c-5.15,0-10.527,2.714-10.527,8.339C5.734,90.52,10.841,93.313,16.531,93.313z"/>
	<path fill="#EF885A" d="M29.324,63.915H18.335L3.429,72.181v-3.844l7.143-3.686c1.963-1.01,3.539-1.783,5.344-2.598v-0.078
		c-1.693-0.736-3.381-1.629-5.344-2.639l-7.143-3.762v-3.84l14.867,8.766h11.027V63.915z"/>
	<path fill="#EF885A" d="M25.25,49.724c0.926-1.514,1.693-3.725,1.693-6.051c0-3.453-1.807-5.473-4.418-5.473
		c-2.42,0-3.807,1.398-5.15,4.926c-1.5,4.27-3.688,6.906-7.34,6.906c-4.033,0-7.031-3.375-7.031-8.457
		c0-2.676,0.617-4.615,1.27-5.779l2.73,0.93c-0.463,0.854-1.23,2.602-1.23,4.967c0,3.568,2.113,4.928,3.879,4.928
		c2.42,0,3.613-1.592,4.996-5.197c1.689-4.422,3.805-6.674,7.607-6.674c3.994,0,7.451,2.988,7.451,9.156
		c0,2.521-0.727,5.275-1.652,6.67L25.25,49.724z"/>
</g>
</svg>
