<?xml version="1.0" encoding="utf-8"?>
<!-- Generator: Adobe Illustrator 16.0.0, SVG Export Plug-In . SVG Version: 6.00 Build 0)  -->
<!DOCTYPE svg PUBLIC "-//W3C//DTD SVG 1.1//EN" "http://www.w3.org/Graphics/SVG/1.1/DTD/svg11.dtd">
<svg version="1.1" id="Women" xmlns="http://www.w3.org/2000/svg" xmlns:xlink="http://www.w3.org/1999/xlink" x="0px" y="0px"
	 width="32.77px" height="200px" viewBox="0 0 32.77 200" enable-background="new 0 0 32.77 200" xml:space="preserve">
<g>
	<path fill="#6DB6A0" d="M28.302,102.847c0.539,1.514,1.422,4.5,1.422,8.033c0,3.955-1,7.213-3.418,9.773
		c-2.152,2.25-5.609,3.645-9.641,3.645c-7.722-0.035-13.372-5.391-13.372-14.16c0-3.025,0.654-5.391,1.189-6.516l2.73,0.816
		c-0.615,1.396-1.113,3.143-1.113,5.779c0,6.363,3.92,10.512,10.411,10.512c6.568,0,10.447-3.994,10.447-10.084
		c0-2.209-0.309-3.727-0.691-4.5h-7.719v5.314h-2.692v-8.613H28.302z"/>
	<path fill="#6DB6A0" d="M3.563,94.321h25.892v3.375H3.563V94.321z"/>
	<path fill="#6DB6A0" d="M3.909,88.427C3.563,86.72,3.37,84.274,3.37,81.95c0-3.609,0.656-5.938,2.115-7.566
		c1.154-1.318,2.92-2.057,4.92-2.057c3.418,0,5.684,2.172,6.604,4.928h0.113c0.691-2.018,2.541-3.223,5.225-3.84
		c3.611-0.855,6.111-1.475,7.107-2.02v3.492c-0.73,0.428-2.953,1.01-6.184,1.746c-3.572,0.773-4.918,2.172-5.035,5.238v3.178h11.219
		v3.377H3.909z M15.704,85.05v-3.451c0-3.607-1.959-5.895-4.916-5.895c-3.346,0-4.801,2.441-4.844,6.012
		c0,1.629,0.156,2.791,0.313,3.334H15.704z"/>
	<path fill="#6DB6A0" d="M3.563,67.562v-3.375H26.65V53.013h2.805v14.549H3.563z"/>
	<path fill="#6DB6A0" d="M25.382,49.724c0.924-1.514,1.693-3.725,1.693-6.053c0-3.451-1.805-5.471-4.418-5.471
		c-2.42,0-3.805,1.398-5.148,4.93c-1.495,4.266-3.687,6.902-7.337,6.902c-4.033,0-7.031-3.375-7.031-8.457
		c0-2.676,0.615-4.615,1.268-5.779l2.729,0.932c-0.463,0.854-1.23,2.6-1.23,4.967c0,3.568,2.115,4.926,3.881,4.926
		c2.418,0,3.613-1.592,4.992-5.201c1.69-4.422,3.806-6.67,7.604-6.67c3.996,0,7.457,2.986,7.457,9.154
		c0,2.523-0.73,5.275-1.656,6.674L25.382,49.724z"/>
</g>
</svg>
