<?xml version="1.0" encoding="utf-8"?>
<!-- Generator: Adobe Illustrator 16.0.0, SVG Export Plug-In . SVG Version: 6.00 Build 0)  -->
<!DOCTYPE svg PUBLIC "-//W3C//DTD SVG 1.1//EN" "http://www.w3.org/Graphics/SVG/1.1/DTD/svg11.dtd">
<svg version="1.1" xmlns="http://www.w3.org/2000/svg" xmlns:xlink="http://www.w3.org/1999/xlink" x="0px" y="0px"
	 width="1275.586px" height="106.5px" viewBox="0 0 1275.586 106.5" enable-background="new 0 0 1275.586 106.5"
	 xml:space="preserve">
<g id="Layer_2">
	<rect fill="#F4F7F4" width="1275.586" height="107.575"/>
</g>
<g id="Layer_1">
	<rect x="29.794" y="34.117" fill="none" stroke="#6DB6A0" stroke-miterlimit="10" width="40.27" height="40.27"/>
	<rect x="240.387" y="34.117" fill="none" stroke="#BBD5C3" stroke-miterlimit="10" width="40.271" height="40.27"/>
	<rect x="450.981" y="34.117" fill="none" stroke="#EF885A" stroke-miterlimit="10" width="40.271" height="40.27"/>
	<rect x="661.576" y="34.117" fill="none" stroke="#EDC9B1" stroke-miterlimit="10" width="40.271" height="40.27"/>
	<g>
		<rect x="872.167" y="33.372" fill="#FFF0E1" width="40.272" height="40.27"/>
		<rect x="872.167" y="60.116" opacity="0.4" fill="#767C6D" width="40.272" height="13.526"/>
	</g>
	<g>
		<rect x="1082.761" y="33.372" fill="#E3EFE5" width="40.273" height="40.27"/>
		<rect x="1082.761" y="33.372" opacity="0.4" fill="#767C6D" width="40.273" height="28.442"/>
	</g>
	<rect x="84.281" y="23.032" fill="none" width="134.277" height="67.059"/>
	<text transform="matrix(1 0 0 1 84.2813 34.9922)"><tspan x="0" y="0" fill="#767C6D" font-family="'Muli'" font-size="16.4071">Women and girls </tspan><tspan x="0" y="19.688" fill="#767C6D" font-family="'Muli'" font-size="16.4071">preference for </tspan><tspan x="0" y="39.377" fill="#767C6D" font-family="'Muli'" font-size="16.4071">political leaders</tspan></text>
	<rect x="295.322" y="23.032" fill="none" width="144.12" height="111.671"/>
	<text transform="matrix(1 0 0 1 295.3223 34.9922)"><tspan x="0" y="0" fill="#767C6D" font-family="'Muli'" font-size="16.4071">Women and girls </tspan><tspan x="0" y="19.688" fill="#767C6D" font-family="'Muli'" font-size="16.4071">preference for no </tspan><tspan x="0" y="39.377" fill="#767C6D" font-family="'Muli'" font-size="16.4071">gender preference</tspan></text>
	<rect x="507.19" y="23.032" fill="none" width="141.069" height="111.671"/>
	<text transform="matrix(1 0 0 1 507.1904 34.9922)"><tspan x="0" y="0" fill="#767C6D" font-family="'Muli'" font-size="16.4071">Men and boys </tspan><tspan x="0" y="19.688" fill="#767C6D" font-family="'Muli'" font-size="16.4071">preference for </tspan><tspan x="0" y="39.377" fill="#767C6D" font-family="'Muli'" font-size="16.4071">political leaders</tspan></text>
	<rect x="718.231" y="23.032" fill="none" width="147.795" height="111.671"/>
	<text transform="matrix(1 0 0 1 718.2314 34.9922)"><tspan x="0" y="0" fill="#767C6D" font-family="'Muli'" font-size="16.4071">Men and boys </tspan><tspan x="0" y="19.688" fill="#767C6D" font-family="'Muli'" font-size="16.4071">preference for no </tspan><tspan x="0" y="39.377" fill="#767C6D" font-family="'Muli'" font-size="16.4071">gender preference</tspan></text>
	<rect x="1142.208" y="23.033" fill="none" width="116.513" height="111.67"/>
	<text transform="matrix(1 0 0 1 1142.209 34.9941)"><tspan x="0" y="0" fill="#767C6D" font-family="'Muli'" font-size="16.4071">Percentage of </tspan><tspan x="0" y="19.688" fill="#767C6D" font-family="'Muli'" font-size="16.4071">Men holding </tspan><tspan x="0" y="39.377" fill="#767C6D" font-family="'Muli'" font-size="16.4071">political role</tspan></text>
	<rect x="939.404" y="23.033" fill="none" width="143.358" height="111.67"/>
	<text transform="matrix(1 0 0 1 939.4043 34.9941)"><tspan x="0" y="0" fill="#767C6D" font-family="'Muli'" font-size="16.4071">Percentage of </tspan><tspan x="0" y="19.688" fill="#767C6D" font-family="'Muli'" font-size="16.4071">women holding </tspan><tspan x="0" y="39.377" fill="#767C6D" font-family="'Muli'" font-size="16.4071">political role</tspan></text>
</g>
</svg>
