<?xml version="1.0" encoding="utf-8"?>
<!-- Generator: Adobe Illustrator 16.0.0, SVG Export Plug-In . SVG Version: 6.00 Build 0)  -->
<!DOCTYPE svg PUBLIC "-//W3C//DTD SVG 1.1//EN" "http://www.w3.org/Graphics/SVG/1.1/DTD/svg11.dtd">
<svg version="1.1" id="Women" xmlns="http://www.w3.org/2000/svg" xmlns:xlink="http://www.w3.org/1999/xlink" x="0px" y="0px"
	 width="32.77px" height="200px" viewBox="0 0 32.77 200" enable-background="new 0 0 32.77 200" xml:space="preserve">
<g>
	<path fill="#EF885A" d="M18.288,82.603c-3.609,0.193-7.951,0.428-11.173,0.389v0.117c3.029,0.893,6.258,1.979,9.832,3.297
		l12.561,4.617v2.561l-12.332,4.23c-3.65,1.24-6.992,2.289-10.06,3.023v0.078c3.223,0.078,7.564,0.274,11.443,0.504l11.104,0.697
		v3.221l-25.892-1.824V99.21l12.522-4.463c3.188-1.086,6.034-1.979,8.72-2.637v-0.117c-2.609-0.662-5.451-1.592-8.72-2.756
		L3.769,84.583v-4.307l25.892-1.629v3.299L18.288,82.603z"/>
	<path fill="#EF885A" d="M17.52,59.919v10.166h9.334V58.757h2.807V73.46H3.769V59.337h2.807v10.748h8.18V59.919H17.52z"/>
	<path fill="#EF885A" d="M29.661,54.376H3.769v-3.684l13.101-8.379c3.035-1.939,5.76-3.453,8.41-4.695l-0.037-0.074
		c-3.457,0.309-6.609,0.387-10.64,0.387H3.769v-3.182h25.892v3.412l-13.139,8.303c-2.88,1.822-5.843,3.568-8.644,4.889l0.039,0.115
		c3.264-0.195,6.379-0.27,10.679-0.27h11.064V54.376z"/>
</g>
</svg>
