<?xml version="1.0" encoding="utf-8"?>
<!-- Generator: Adobe Illustrator 16.0.0, SVG Export Plug-In . SVG Version: 6.00 Build 0)  -->
<!DOCTYPE svg PUBLIC "-//W3C//DTD SVG 1.1//EN" "http://www.w3.org/Graphics/SVG/1.1/DTD/svg11.dtd">
<svg version="1.1" id="menP" xmlns="http://www.w3.org/2000/svg" xmlns:xlink="http://www.w3.org/1999/xlink" x="0px" y="0px"
	 width="32.77px" height="200px" viewBox="0 0 32.77 200" enable-background="new 0 0 32.77 200" xml:space="preserve">
<g>
	<path fill="#767C6D" d="M17.516,153.895c-2.185,0.117-4.81,0.256-6.76,0.232v0.07c1.835,0.534,3.787,1.185,5.947,1.975l7.597,2.764
		v1.534l-7.458,2.531c-2.206,0.742-4.226,1.37-6.085,1.813v0.045c1.95,0.046,4.576,0.163,6.921,0.303l6.715,0.42v1.927l-15.658-1.09
		v-2.58l7.573-2.672c1.93-0.65,3.647-1.185,5.273-1.58v-0.07c-1.578-0.396-3.298-0.951-5.273-1.648l-7.573-2.788v-2.578
		l15.658-0.977v1.976L17.516,153.895z"/>
	<path fill="#767C6D" d="M19.141,147.195c2.766-0.048,3.903-1.813,3.903-3.857c0-1.462-0.256-2.346-0.582-3.112l1.464-0.35
		c0.326,0.722,0.698,1.953,0.698,3.741c0,3.462-2.276,5.53-5.669,5.53c-3.391,0-6.062-2-6.062-5.274
		c0-3.672,3.229-4.647,5.296-4.647c0.417,0,0.743,0.048,0.951,0.07V147.195z M17.677,141.2c-1.3-0.022-3.322,0.535-3.322,2.835
		c0,2.068,1.907,2.975,3.322,3.137V141.2z"/>
	<path fill="#767C6D" d="M16.19,136.688c-1.161,0-2.112,0.023-3.041,0.092v-1.812l1.857-0.116v-0.047
		c-1.067-0.556-2.113-1.857-2.113-3.717c0-1.555,0.928-3.972,4.784-3.972h6.715v2.045h-6.479c-1.813,0-3.323,0.673-3.323,2.603
		c0,1.346,0.952,2.393,2.088,2.741c0.257,0.092,0.605,0.137,0.953,0.137h6.761v2.046H16.19z"/>
	<path fill="#767C6D" d="M8.734,116.769h15.658v2.022H8.734V116.769z"/>
	<path fill="#767C6D" d="M16.19,113.072c-1.161,0-2.112,0.025-3.041,0.093v-1.812l1.857-0.115v-0.047
		c-1.067-0.557-2.113-1.858-2.113-3.718c0-1.555,0.928-3.973,4.784-3.973h6.715v2.046h-6.479c-1.813,0-3.323,0.674-3.323,2.603
		c0,1.346,0.952,2.393,2.088,2.741c0.257,0.092,0.605,0.138,0.953,0.138h6.761v2.044H16.19z"/>
	<path fill="#767C6D" d="M8.919,95.175c-0.163-0.974-0.3-2.253-0.3-3.879c0-1.998,0.463-3.46,1.301-4.391
		c0.744-0.859,1.882-1.37,3.274-1.37c1.419,0,2.533,0.418,3.346,1.207c1.138,1.069,1.72,2.811,1.72,4.786
		c0,0.605-0.022,1.162-0.139,1.627h6.271v2.02H8.919z M16.47,93.155c0.117-0.441,0.163-0.999,0.163-1.673
		c0-2.44-1.185-3.927-3.345-3.927c-2.069,0-3.068,1.464-3.068,3.694c0,0.883,0.072,1.557,0.163,1.905H16.47z"/>
	<path fill="#767C6D" d="M18.678,73.286c4.156,0,5.97,2.879,5.97,5.599c0,3.043-2.231,5.389-5.784,5.389
		c-3.763,0-5.97-2.463-5.97-5.575C12.894,75.468,15.239,73.286,18.678,73.286z M18.792,82.206c2.464,0,4.321-1.416,4.321-3.416
		c0-1.95-1.835-3.414-4.366-3.414c-1.906,0-4.32,0.952-4.32,3.369C14.427,81.16,16.656,82.206,18.792,82.206z"/>
	<path fill="#767C6D" d="M7.898,70.701v-2.045h16.494v2.045H7.898z"/>
	<path fill="#767C6D" d="M9.99,62.939c0.696-0.024,1.254,0.488,1.254,1.3c0,0.72-0.558,1.231-1.254,1.231
		c-0.72,0-1.278-0.534-1.278-1.279C8.711,63.427,9.27,62.939,9.99,62.939z M24.392,65.215H13.149V63.17h11.243V65.215z"/>
	<path fill="#767C6D" d="M9.92,57.313h3.229v-2.928h1.555v2.928h6.064c1.395,0,2.183-0.393,2.183-1.532
		c0-0.535-0.068-0.93-0.138-1.184l1.533-0.094c0.163,0.396,0.278,1.021,0.278,1.812c0,0.953-0.303,1.72-0.86,2.208
		c-0.604,0.581-1.602,0.789-2.927,0.789h-6.134v1.743h-1.555v-1.743h-2.695L9.92,57.313z"/>
	<path fill="#767C6D" d="M9.99,49.806c0.696-0.024,1.254,0.488,1.254,1.299c0,0.722-0.558,1.234-1.254,1.234
		c-0.72,0-1.278-0.536-1.278-1.279C8.711,50.294,9.27,49.806,9.99,49.806z M24.392,52.082H13.149v-2.043h11.243V52.082z"/>
	<path fill="#767C6D" d="M23.973,38.628c0.279,0.536,0.651,1.722,0.651,3.231c0,3.39-2.3,5.599-5.736,5.599
		c-3.462,0-5.972-2.372-5.972-6.042c0-1.206,0.301-2.277,0.581-2.833l1.58,0.465c-0.278,0.488-0.533,1.252-0.533,2.368
		c0,2.581,1.905,3.973,4.25,3.973c2.603,0,4.206-1.672,4.206-3.902c0-1.162-0.302-1.928-0.559-2.511L23.973,38.628z"/>
	<path fill="#767C6D" d="M22.3,36.51c0.396-0.605,0.813-1.672,0.813-2.695c0-1.487-0.741-2.183-1.672-2.183
		c-0.976,0-1.51,0.581-2.067,2.09c-0.721,2.02-1.835,2.973-3.185,2.973c-1.81,0-3.296-1.464-3.296-3.879
		c0-1.137,0.324-2.135,0.696-2.764l1.487,0.511c-0.278,0.44-0.649,1.254-0.649,2.3c0,1.207,0.696,1.879,1.533,1.879
		c0.928,0,1.346-0.673,1.904-2.137c0.743-1.95,1.721-2.949,3.393-2.949c1.975,0,3.368,1.534,3.368,4.205
		c0,1.229-0.303,2.368-0.766,3.159L22.3,36.51z"/>
</g>
</svg>
