<?xml version="1.0" encoding="utf-8"?>
<!-- Generator: Adobe Illustrator 16.0.0, SVG Export Plug-In . SVG Version: 6.00 Build 0)  -->
<!DOCTYPE svg PUBLIC "-//W3C//DTD SVG 1.1//EN" "http://www.w3.org/Graphics/SVG/1.1/DTD/svg11.dtd">
<svg version="1.1" id="Layer_1" xmlns="http://www.w3.org/2000/svg" xmlns:xlink="http://www.w3.org/1999/xlink" x="0px" y="0px"
	 width="1280px" height="800px" viewBox="0 0 1280 800" enable-background="new 0 0 1280 800" xml:space="preserve">
<rect x="287.424" y="444.927" fill="#FFF0E1" width="268.741" height="268.743"/>
<rect x="287.425" y="443.429" fill="none" stroke="#6DB6A0" stroke-width="4" stroke-miterlimit="10" width="268.741" height="61.808"/>
<rect x="287.422" y="510.68" fill="none" stroke="#BBD5C3" stroke-width="4" stroke-miterlimit="10" width="268.742" height="185.432"/>
<rect x="293.308" y="485.692" fill="none" width="256.971" height="30.801"/>
<text transform="matrix(1 0 0 1 293.3086 500.7061)" fill="#6DB6A0" font-family="'Muli'" font-size="20.595">23% Prefer Men</text>
<rect x="293.308" y="676.938" fill="none" width="256.971" height="30.801"/>
<text transform="matrix(1 0 0 1 293.3086 691.9512)" fill="#BBD5C3" font-family="'Muli'" font-size="20.595">69% No Preference</text>
<rect x="290.368" y="701.647" fill="none" width="256.973" height="30.801"/>
<text transform="matrix(1 0 0 1 290.3687 716.6611)" fill="#6DB6A0" font-family="'Muli'" font-size="20.595">8% Prefer Women</text>
<rect x="287.422" y="698.701" fill="none" stroke="#6DB6A0" stroke-width="4" stroke-miterlimit="10" width="268.742" height="21.498"/>
<rect x="287.368" y="72.874" fill="#FFF0E1" width="268.741" height="268.742"/>
<rect x="287.368" y="315.54" fill="none" stroke="#6DB6A0" stroke-width="4" stroke-miterlimit="10" width="268.741" height="29.557"/>
<rect x="287.368" y="106.131" fill="none" stroke="#BBD5C3" stroke-width="4" stroke-miterlimit="10" width="268.741" height="204.241"/>
<rect x="287.482" y="69.746" fill="none" stroke="#6DB6A0" stroke-width="4" stroke-miterlimit="10" width="268.742" height="32.248"/>
<rect x="291.894" y="109.89" fill="none" width="256.974" height="30.801"/>
<text transform="matrix(1 0 0 1 291.894 124.9038)" fill="#BBD5C3" font-family="'Muli'" font-size="20.595">74% No Preference</text>
<rect x="290.422" y="320.447" fill="none" width="256.974" height="30.801"/>
<text transform="matrix(1 0 0 1 290.4229 335.4624)" fill="#6DB6A0" font-family="'Muli'" font-size="20.595">7% Prefer Women</text>
<rect x="290.422" y="81.557" fill="none" width="256.974" height="30.801"/>
<text transform="matrix(1 0 0 1 290.4229 96.5723)" fill="#6DB6A0" font-family="'Muli'" font-size="20.595">17% Prefer Men</text>
<rect x="721.129" y="67.552" fill="#E3EFE5" width="268.742" height="268.734"/>
<rect x="720.676" y="67.935" fill="none" stroke="#EF885A" stroke-width="3" stroke-miterlimit="10" width="268.742" height="45.687"/>
<rect x="720.676" y="317.09" fill="none" stroke="#EF885A" stroke-width="3" stroke-miterlimit="10" width="268.742" height="18.811"/>
<rect x="720.676" y="116.403" fill="none" stroke="#EDC9B1" stroke-width="3" stroke-miterlimit="10" width="268.742" height="198.868"/>
<rect x="726.561" y="94.655" fill="none" width="256.973" height="30.8"/>
<text transform="matrix(1 0 0 1 726.5615 109.6689)" fill="#EF885A" font-family="'Muli'" font-size="20.595">17% Prefer Men</text>
<rect x="726.561" y="299.021" fill="none" width="256.973" height="30.801"/>
<text transform="matrix(1 0 0 1 726.5615 314.0361)" fill="#EDC9B1" font-family="'Muli'" font-size="20.595">74% No Preference</text>
<rect x="730.151" y="319.624" fill="none" width="256.974" height="27.313"/>
<text transform="matrix(1 0 0 1 730.1533 334.6387)" fill="#EF885A" font-family="'Muli'" font-size="20.595">7% Prefer Women</text>
<rect x="723.843" y="443.34" fill="#E3EFE5" width="268.742" height="268.734"/>
<polygon fill="none" stroke="#EF885A" stroke-width="4" stroke-miterlimit="10" points="992.133,716.507 723.03,714.182 
	723.03,703.436 992.133,705.762 "/>
<rect x="723.03" y="550.971" fill="none" stroke="#EDC9B1" stroke-width="4" stroke-miterlimit="10" width="268.742" height="148.293"/>
<rect x="722.313" y="439.76" fill="none" stroke="#EF885A" stroke-width="4" stroke-miterlimit="10" width="268.741" height="107.496"/>
<rect x="727.084" y="553.89" fill="none" width="256.974" height="30.801"/>
<text transform="matrix(1 0 0 1 727.085 568.9033)" fill="#EDC9B1" font-family="'Muli'" font-size="20.595">56% No Preference</text>
<rect x="727.084" y="688.036" fill="none" width="256.974" height="30.801"/>
<text transform="matrix(1 0 0 1 727.084 703.0508)" fill="#EF885A" font-family="'Muli'" font-size="20.595">4% Prefer Women</text>
<rect x="726.788" y="443.34" fill="none" width="256.971" height="30.801"/>
<text transform="matrix(1 0 0 1 726.7891 458.3545)" fill="#EF885A" font-family="'Muli'" font-size="20.595">40% Prefer Men</text>
<g>
	<path fill="#EF885A" d="M690.266,123.673c-4.222,0.226-9.3,0.5-13.069,0.455v0.137c3.543,1.044,7.319,2.314,11.5,3.856l14.69,5.4
		v2.995l-14.424,4.948c-4.27,1.451-8.178,2.677-11.767,3.536v0.092c3.77,0.091,8.848,0.319,13.385,0.589l12.986,0.816v3.767
		l-30.284-2.134v-5.033l14.646-5.22c3.729-1.27,7.058-2.314,10.198-3.084v-0.137c-3.052-0.774-6.375-1.862-10.198-3.223
		l-14.646-5.444v-5.037l30.284-1.905v3.858L690.266,123.673z"/>
	<path fill="#EF885A" d="M689.367,97.14v11.891h10.918v-13.25h3.282v17.198h-30.284v-16.52h3.282v12.571h9.567V97.14H689.367z"/>
	<path fill="#EF885A" d="M703.567,90.657h-30.284v-4.309l15.323-9.8c3.551-2.269,6.737-4.039,9.837-5.492L698.4,70.97
		c-4.044,0.361-7.73,0.452-12.445,0.452h-12.672v-3.721h30.284v3.991L688.2,81.403c-3.369,2.131-6.835,4.173-10.111,5.718
		l0.046,0.135c3.817-0.229,7.461-0.315,12.491-0.315h12.941V90.657z"/>
</g>
<g>
	<path fill="#6DB6A0" d="M269.256,218.573l-30.285,7.76v-4.176l15.324-3.632c3.77-0.905,7.545-1.723,10.465-2.267v-0.091
		c-3.009-0.498-6.604-1.453-10.513-2.495l-15.276-4.084v-4.13l15.365-3.719c3.598-0.864,7.191-1.682,10.383-2.134v-0.089
		c-3.324-0.638-6.695-1.499-10.472-2.451l-15.276-4.039v-4.039l30.285,8.669v4.128l-15.77,3.856
		c-3.865,0.955-6.833,1.59-9.889,1.997v0.089c3.011,0.546,5.978,1.227,9.889,2.362l15.77,4.356V218.573z"/>
	<path fill="#6DB6A0" d="M253.802,159.052c10.419,0,15.95,6.399,15.95,14.2c0,8.078-6.202,13.75-15.367,13.75
		c-9.615,0-15.907-6.033-15.907-14.203C238.478,164.453,244.81,159.052,253.802,159.052z M254.295,182.783
		c6.47,0,12.268-3.541,12.268-9.757c0-6.262-5.709-9.798-12.583-9.798c-6.024,0-12.313,3.173-12.313,9.754
		C241.667,179.516,247.641,182.783,254.295,182.783z"/>
	<path fill="#6DB6A0" d="M255.956,128.162c-4.224,0.227-9.302,0.498-13.079,0.455v0.137c3.55,1.044,7.326,2.312,11.507,3.854
		l14.693,5.4v2.995l-14.426,4.946c-4.27,1.453-8.181,2.677-11.774,3.541v0.089c3.776,0.091,8.854,0.319,13.394,0.591l12.985,0.815
		v3.765l-30.285-2.132v-5.037l14.648-5.22c3.728-1.27,7.056-2.312,10.202-3.082v-0.135c-3.057-0.777-6.385-1.862-10.202-3.226
		l-14.648-5.444v-5.035l30.285-1.907v3.856L255.956,128.162z"/>
	<path fill="#6DB6A0" d="M255.056,101.629v11.888h10.92v-13.245h3.28v17.193h-30.285V100.95h3.278v12.566h9.572v-11.888H255.056z"/>
	<path fill="#6DB6A0" d="M269.256,95.147h-30.285v-4.311l15.324-9.802c3.55-2.266,6.737-4.035,9.837-5.487l-0.043-0.091
		c-4.043,0.361-7.728,0.452-12.445,0.452h-12.672v-3.717h30.285v3.991l-15.365,9.711c-3.372,2.131-6.833,4.174-10.113,5.713
		l0.046,0.139c3.817-0.229,7.458-0.32,12.494-0.32h12.939V95.147z"/>
</g>
<g>
	<path fill="#6DB6A0" d="M267.908,520.788c0.631,1.771,1.663,5.264,1.663,9.396c0,4.626-1.169,8.437-3.998,11.432
		c-2.518,2.632-6.561,4.263-11.276,4.263c-9.032-0.041-15.641-6.305-15.641-16.563c0-3.538,0.766-6.305,1.392-7.62l3.193,0.954
		c-0.719,1.634-1.302,3.676-1.302,6.76c0,7.443,4.584,12.295,12.177,12.295c7.683,0,12.22-4.672,12.22-11.794
		c0-2.584-0.361-4.359-0.809-5.264H256.5v6.216h-3.149v-10.074H267.908z"/>
	<path fill="#6DB6A0" d="M238.973,510.816h30.284v3.947h-30.284V510.816z"/>
	<path fill="#6DB6A0" d="M239.377,503.922c-0.404-1.996-0.63-4.856-0.63-7.575c0-4.222,0.768-6.944,2.474-8.85
		c1.35-1.542,3.415-2.405,5.754-2.405c3.998,0,6.647,2.54,7.725,5.764h0.133c0.809-2.36,2.972-3.77,6.111-4.491
		c4.224-1.001,7.148-1.725,8.313-2.362v4.084c-0.854,0.501-3.454,1.182-7.232,2.043c-4.178,0.904-5.752,2.54-5.89,6.127v3.717
		h13.122v3.949H239.377z M253.173,499.973v-4.037c0-4.22-2.292-6.895-5.75-6.895c-3.913,0-5.615,2.855-5.666,7.031
		c0,1.905,0.183,3.265,0.366,3.9H253.173z"/>
	<path fill="#6DB6A0" d="M238.973,479.518v-3.947h27.003v-13.069h3.281v17.017H238.973z"/>
	<path fill="#6DB6A0" d="M264.493,458.653c1.081-1.77,1.98-4.355,1.98-7.079c0-4.036-2.111-6.398-5.167-6.398
		c-2.831,0-4.45,1.636-6.022,5.766c-1.749,4.989-4.312,8.073-8.582,8.073c-4.717,0-8.224-3.947-8.224-9.892
		c0-3.13,0.719-5.398,1.482-6.76l3.191,1.09c-0.542,0.998-1.439,3.041-1.439,5.81c0,4.174,2.474,5.761,4.54,5.761
		c2.828,0,4.226-1.861,5.839-6.083c1.977-5.172,4.451-7.802,8.895-7.802c4.674,0,8.722,3.493,8.722,10.707
		c0,2.952-0.854,6.171-1.937,7.807L264.493,458.653z"/>
</g>
<g>
	<path fill="#EF885A" d="M674.713,534.437c-0.363-1.725-0.631-4.445-0.631-7.212c0-3.947,0.674-6.49,2.205-8.393
		c1.167-1.588,2.963-2.543,5.346-2.543c2.921,0,5.482,1.951,6.649,5.172h0.094c0.715-2.903,3.098-6.305,7.594-6.305
		c2.604,0,4.58,1.044,6.063,2.583c1.933,2.137,2.833,5.581,2.833,10.573c0,2.723-0.179,4.809-0.361,6.124H674.713z M687.115,530.491
		v-3.584c0-4.176-2.156-6.625-5.081-6.625c-3.545,0-4.943,2.723-4.943,6.717c0,1.813,0.137,2.857,0.274,3.492H687.115z
		 M701.63,530.491c0.133-0.77,0.181-1.907,0.181-3.313c0-4.082-1.482-7.849-5.892-7.849c-4.13,0-5.839,3.584-5.839,7.895v3.267
		H701.63z"/>
	<path fill="#EF885A" d="M689.135,483.719c10.428,0,15.954,6.398,15.954,14.201c0,8.075-6.2,13.75-15.367,13.75
		c-9.62,0-15.911-6.038-15.911-14.204C673.811,489.119,680.147,483.719,689.135,483.719z M689.633,507.448
		c6.469,0,12.267-3.538,12.267-9.757c0-6.259-5.708-9.797-12.582-9.797c-6.024,0-12.313,3.175-12.313,9.754
		C677.004,504.182,682.978,507.448,689.633,507.448z"/>
	<path fill="#EF885A" d="M704.596,473.064h-12.853l-17.435,9.668v-4.496l8.354-4.311c2.296-1.182,4.139-2.086,6.25-3.038v-0.092
		c-1.98-0.861-3.954-1.905-6.25-3.086l-8.354-4.4v-4.491l17.389,10.253h12.898V473.064z"/>
	<path fill="#EF885A" d="M699.83,456.466c1.083-1.771,1.98-4.356,1.98-7.077c0-4.039-2.113-6.401-5.167-6.401
		c-2.831,0-4.452,1.636-6.024,5.762c-1.754,4.993-4.313,8.077-8.585,8.077c-4.717,0-8.224-3.947-8.224-9.892
		c0-3.129,0.722-5.397,1.484-6.759l3.194,1.087c-0.542,0.998-1.439,3.043-1.439,5.81c0,4.174,2.472,5.764,4.537,5.764
		c2.83,0,4.226-1.862,5.844-6.079c1.976-5.172,4.449-7.806,8.897-7.806c4.672,0,8.715,3.495,8.715,10.709
		c0,2.949-0.85,6.171-1.933,7.802L699.83,456.466z"/>
</g>
</svg>
