<?xml version="1.0" encoding="utf-8"?>
<!-- Generator: Adobe Illustrator 16.0.0, SVG Export Plug-In . SVG Version: 6.00 Build 0)  -->
<!DOCTYPE svg PUBLIC "-//W3C//DTD SVG 1.1//EN" "http://www.w3.org/Graphics/SVG/1.1/DTD/svg11.dtd">
<svg version="1.1" id="Layer_1" xmlns="http://www.w3.org/2000/svg" xmlns:xlink="http://www.w3.org/1999/xlink" x="0px" y="0px"
	 width="1280px" height="800px" viewBox="0 0 1280 800" enable-background="new 0 0 1280 800" xml:space="preserve">
<rect x="136.104" y="2.291" fill="#FFF0E1" width="1007.792" height="137.662"/>
<rect x="136.104" y="792.363" fill="#E3EFE5" width="1007.792" height="7.184"/>
<rect x="136.104" y="139.952" fill="#F4F7F4" width="1007.792" height="84.991"/>
<rect x="153.287" y="160.87" fill="none" stroke="#6DB6A0" stroke-miterlimit="10" width="32.319" height="32.319"/>
<rect x="322.3" y="160.87" fill="none" stroke="#BBD5C3" stroke-miterlimit="10" width="32.319" height="32.319"/>
<rect x="491.314" y="160.87" fill="none" stroke="#EF885A" stroke-miterlimit="10" width="32.318" height="32.319"/>
<rect x="660.329" y="160.87" fill="none" stroke="#EDC9B1" stroke-miterlimit="10" width="32.317" height="32.319"/>
<g>
	<rect x="829.341" y="160.271" fill="#FFF0E1" width="32.32" height="32.318"/>
	<rect x="829.341" y="181.734" opacity="0.4" fill="#767C6D" enable-background="new    " width="32.32" height="10.855"/>
</g>
<g>
	<rect x="998.354" y="160.271" fill="#E3EFE5" width="32.32" height="32.318"/>
	<rect x="998.354" y="160.271" opacity="0.4" fill="#767C6D" enable-background="new    " width="32.32" height="22.826"/>
</g>
<rect x="169.447" y="24.7" fill="none" width="950.64" height="121.266"/>
<text transform="matrix(1 0 0 1 172.8921 45.6436)" fill="#767C6D" font-family="'Muli'" font-size="28.7294">While </text>
<text transform="matrix(1 0 0 1 258.4351 45.6436)" fill="#6DB6A0" font-family="'Muli'" font-size="28.7294">92% </text>
<text transform="matrix(1 0 0 1 328.0713 45.6436)" fill="#767C6D" font-family="'Muli'" font-size="28.7294">of girls believe anyone can acquire the skills of leadership, </text>
<text transform="matrix(1 0 0 1 224.6343 80.1182)" fill="#767C6D" font-family="'Muli'" font-size="28.7294">only</text>
<text transform="matrix(1 0 0 1 281.125 80.1182)" fill="#6DB6A0" font-family="'Muli'" font-size="28.7294"> 21% </text>
<text transform="matrix(1 0 0 1 359.1631 80.1182)" fill="#767C6D" font-family="'Muli'" font-size="28.7294">believe they currently have most of the key qualities</text>
<text transform="matrix(1 0 0 1 450.7241 114.5938)" fill="#767C6D" font-family="'Muli'" font-size="28.7294">required to be a good leader </text>
<rect x="197.017" y="151.972" fill="none" width="107.765" height="53.819"/>
<text transform="matrix(1 0 0 1 197.0166 161.5703)" fill="#767C6D" font-family="'Muli'" font-size="13.1676">Women and girls </text>
<text transform="matrix(1 0 0 1 197.0166 177.3721)" fill="#767C6D" font-family="'Muli'" font-size="13.1676">preference for </text>
<text transform="matrix(1 0 0 1 197.0166 193.1729)" fill="#767C6D" font-family="'Muli'" font-size="13.1676">political leaders</text>
<rect x="366.389" y="151.972" fill="none" width="115.665" height="89.622"/>
<text transform="matrix(1 0 0 1 366.3892 161.5703)" fill="#767C6D" font-family="'Muli'" font-size="13.1676">Women and girls </text>
<text transform="matrix(1 0 0 1 366.3892 177.3721)" fill="#767C6D" font-family="'Muli'" font-size="13.1676">preference for no </text>
<text transform="matrix(1 0 0 1 366.3892 193.1729)" fill="#767C6D" font-family="'Muli'" font-size="13.1676">gender preference</text>
<rect x="536.426" y="151.972" fill="none" width="113.216" height="89.622"/>
<text transform="matrix(1 0 0 1 536.4258 161.5703)" fill="#767C6D" font-family="'Muli'" font-size="13.1676">Men and boys </text>
<text transform="matrix(1 0 0 1 536.4258 177.3721)" fill="#767C6D" font-family="'Muli'" font-size="13.1676">preference for </text>
<text transform="matrix(1 0 0 1 536.4258 193.1729)" fill="#767C6D" font-family="'Muli'" font-size="13.1676">political leaders</text>
<rect x="705.8" y="151.972" fill="none" width="118.611" height="89.622"/>
<text transform="matrix(1 0 0 1 705.7988 161.5703)" fill="#767C6D" font-family="'Muli'" font-size="13.1676">Men and boys </text>
<text transform="matrix(1 0 0 1 705.7988 177.3721)" fill="#767C6D" font-family="'Muli'" font-size="13.1676">preference for no </text>
<text transform="matrix(1 0 0 1 705.7988 193.1729)" fill="#767C6D" font-family="'Muli'" font-size="13.1676">gender preference</text>
<rect x="1046.064" y="151.973" fill="none" width="93.507" height="89.622"/>
<text transform="matrix(1 0 0 1 1046.0645 161.5723)" fill="#767C6D" font-family="'Muli'" font-size="13.1676">Percentage of </text>
<text transform="matrix(1 0 0 1 1046.0645 177.373)" fill="#767C6D" font-family="'Muli'" font-size="13.1676">Men holding </text>
<text transform="matrix(1 0 0 1 1046.0645 193.1738)" fill="#767C6D" font-family="'Muli'" font-size="13.1676">political role</text>
<rect x="883.3" y="151.973" fill="none" width="115.056" height="89.622"/>
<text transform="matrix(1 0 0 1 883.3008 161.5723)" fill="#767C6D" font-family="'Muli'" font-size="13.1676">Percentage of </text>
<text transform="matrix(1 0 0 1 883.3008 177.373)" fill="#767C6D" font-family="'Muli'" font-size="13.1676">women holding </text>
<text transform="matrix(1 0 0 1 883.3008 193.1738)" fill="#767C6D" font-family="'Muli'" font-size="13.1676">political role</text>
<rect x="134.616" y="397.903" fill="#E3EFE5" width="1007.791" height="7.182"/>
<rect x="134.616" y="602.88" fill="#E3EFE5" width="1007.791" height="7.183"/>
<g>
	<rect x="303.718" y="279.626" fill="#E3EFE5" width="72.894" height="72.894"/>
	<rect x="303.718" y="279.626" opacity="0.5" fill="#767C6D" enable-background="new    " width="72.894" height="65.604"/>
</g>
<g>
	<rect x="303.719" y="481.122" fill="#E3EFE5" width="72.894" height="72.894"/>
	<rect x="303.718" y="481.122" opacity="0.5" fill="#767C6D" enable-background="new    " width="72.896" height="55.399"/>
</g>
<g>
	<rect x="303.719" y="682.62" fill="#E3EFE5" width="72.894" height="72.894"/>
	<rect x="303.718" y="682.62" opacity="0.5" fill="#767C6D" enable-background="new    " width="72.896" height="53.213"/>
</g>
<g>
	<g>
		<rect x="209.255" y="279.626" fill="#FFF0E1" width="72.895" height="72.894"/>
	</g>
	<rect x="209.255" y="345.231" opacity="0.5" fill="#767C6D" enable-background="new    " width="72.895" height="7.287"/>
</g>
<g>
	<g>
		<rect x="209.255" y="682.62" fill="#FFF0E1" width="72.895" height="72.894"/>
	</g>
	<rect x="209.255" y="735.83" opacity="0.5" fill="#767C6D" enable-background="new    " width="72.894" height="19.684"/>
</g>
<g>
	<g>
		<rect x="209.255" y="481.12" fill="#FFF0E1" width="72.895" height="72.896"/>
	</g>
	<rect x="209.255" y="536.521" opacity="0.5" fill="#767C6D" enable-background="new    " width="72.895" height="17.495"/>
</g>
<g>
	<rect x="544.91" y="278.838" fill="#E3EFE5" width="72.895" height="72.896"/>
	<rect x="544.91" y="278.838" opacity="0.5" fill="#767C6D" enable-background="new    " width="72.895" height="65.604"/>
</g>
<g>
	<rect x="544.911" y="480.333" fill="#E3EFE5" width="72.895" height="72.896"/>
	<rect x="544.91" y="480.333" opacity="0.5" fill="#767C6D" enable-background="new    " width="72.896" height="55.402"/>
</g>
<g>
	<rect x="544.911" y="681.833" fill="#E3EFE5" width="72.895" height="72.894"/>
	<rect x="544.91" y="681.833" opacity="0.5" fill="#767C6D" enable-background="new    " width="72.896" height="53.215"/>
</g>
<g>
	<g>
		<rect x="450.447" y="278.838" fill="#FFF0E1" width="72.895" height="72.896"/>
	</g>
	<rect x="450.447" y="344.444" opacity="0.5" fill="#767C6D" enable-background="new    " width="72.895" height="7.288"/>
</g>
<g>
	<g>
		<rect x="450.447" y="681.833" fill="#FFF0E1" width="72.895" height="72.894"/>
	</g>
	<rect x="450.447" y="735.043" opacity="0.5" fill="#767C6D" enable-background="new    " width="72.894" height="19.684"/>
</g>
<g>
	<g>
		<rect x="450.447" y="480.333" fill="#FFF0E1" width="72.895" height="72.897"/>
	</g>
	<rect x="450.447" y="535.735" opacity="0.5" fill="#767C6D" enable-background="new    " width="72.895" height="17.495"/>
</g>
<g>
	<rect x="779.987" y="279.626" fill="#E3EFE5" width="72.895" height="72.894"/>
	<rect x="779.987" y="279.626" opacity="0.5" fill="#767C6D" enable-background="new    " width="72.895" height="65.604"/>
</g>
<g>
	<rect x="779.989" y="481.122" fill="#E3EFE5" width="72.895" height="72.894"/>
	<rect x="779.987" y="481.122" opacity="0.5" fill="#767C6D" enable-background="new    " width="72.896" height="55.399"/>
</g>
<g>
	<rect x="779.989" y="682.62" fill="#E3EFE5" width="72.895" height="72.894"/>
	<rect x="779.987" y="682.62" opacity="0.5" fill="#767C6D" enable-background="new    " width="72.896" height="53.213"/>
</g>
<g>
	<g>
		<rect x="685.524" y="279.626" fill="#FFF0E1" width="72.895" height="72.894"/>
	</g>
	<rect x="685.524" y="345.231" opacity="0.5" fill="#767C6D" enable-background="new    " width="72.895" height="7.287"/>
</g>
<g>
	<g>
		<rect x="685.524" y="682.62" fill="#FFF0E1" width="72.895" height="72.894"/>
	</g>
	<rect x="685.524" y="735.83" opacity="0.5" fill="#767C6D" enable-background="new    " width="72.895" height="19.684"/>
</g>
<g>
	<g>
		<rect x="685.524" y="481.12" fill="#FFF0E1" width="72.895" height="72.896"/>
	</g>
	<rect x="685.524" y="536.521" opacity="0.5" fill="#767C6D" enable-background="new    " width="72.895" height="17.495"/>
</g>
<g>
	<rect x="1018.857" y="278.838" fill="#E3EFE5" width="72.896" height="72.896"/>
	<rect x="1018.857" y="278.838" opacity="0.5" fill="#767C6D" enable-background="new    " width="72.896" height="65.604"/>
</g>
<g>
	<rect x="1018.86" y="480.335" fill="#E3EFE5" width="72.893" height="72.896"/>
	<rect x="1018.857" y="480.335" opacity="0.5" fill="#767C6D" enable-background="new    " width="72.896" height="55.4"/>
</g>
<g>
	<rect x="1018.86" y="681.833" fill="#E3EFE5" width="72.893" height="72.894"/>
	<rect x="1018.857" y="681.834" opacity="0.5" fill="#767C6D" enable-background="new    " width="72.896" height="53.214"/>
</g>
<g>
	<g>
		<rect x="924.396" y="278.838" fill="#FFF0E1" width="72.895" height="72.896"/>
	</g>
	<rect x="924.396" y="344.445" opacity="0.5" fill="#767C6D" enable-background="new    " width="72.895" height="7.288"/>
</g>
<g>
	<g>
		<rect x="924.396" y="681.833" fill="#FFF0E1" width="72.895" height="72.894"/>
	</g>
	<rect x="924.396" y="735.043" opacity="0.5" fill="#767C6D" enable-background="new    " width="72.895" height="19.684"/>
</g>
<g>
	<g>
		<rect x="924.396" y="480.333" fill="#FFF0E1" width="72.895" height="72.897"/>
	</g>
	<rect x="924.396" y="535.735" opacity="0.5" fill="#767C6D" enable-background="new    " width="72.895" height="17.495"/>
</g>
<rect x="544.487" y="280.691" fill="none" stroke="#EF885A" stroke-miterlimit="10" width="72.894" height="12.392"/>
<rect x="450.446" y="348.273" fill="none" stroke="#EF885A" stroke-miterlimit="10" width="72.894" height="5.101"/>
<rect x="450.446" y="293.837" fill="none" stroke="#EDC9B1" stroke-miterlimit="10" width="72.894" height="53.94"/>
<rect x="923.974" y="350.202" fill="none" stroke="#EF885A" stroke-miterlimit="10" width="72.894" height="2.915"/>
<rect x="923.974" y="308.479" fill="none" stroke="#EDC9B1" stroke-miterlimit="10" width="72.894" height="40.82"/>
<rect x="209.255" y="345.398" fill="none" stroke="#6DB6A0" stroke-miterlimit="10" width="72.895" height="8.019"/>
<rect x="209.255" y="288.597" fill="none" stroke="#BBD5C3" stroke-miterlimit="10" width="72.895" height="55.399"/>
<rect x="685.104" y="296.857" fill="none" stroke="#BBD5C3" stroke-miterlimit="10" width="72.893" height="50.297"/>
<rect x="685.104" y="347.907" fill="none" stroke="#6DB6A0" stroke-miterlimit="10" width="72.893" height="5.831"/>
<rect x="303.294" y="281.093" fill="none" stroke="#6DB6A0" stroke-miterlimit="10" width="72.895" height="8.746"/>
<rect x="779.565" y="280.611" fill="none" stroke="#6DB6A0" stroke-miterlimit="10" width="72.895" height="16.766"/>
<rect x="544.487" y="293.837" fill="none" stroke="#EDC9B1" stroke-miterlimit="10" width="72.894" height="53.94"/>
<rect x="303.294" y="290.994" fill="none" stroke="#BBD5C3" stroke-miterlimit="10" width="72.895" height="55.398"/>
<rect x="779.565" y="298.055" fill="none" stroke="#BBD5C3" stroke-miterlimit="10" width="72.895" height="50.296"/>
<rect x="1018.436" y="309.41" fill="none" stroke="#EDC9B1" stroke-miterlimit="10" width="72.895" height="40.82"/>
<rect x="1018.436" y="279.053" fill="none" stroke="#EF885A" stroke-miterlimit="10" width="72.895" height="29.158"/>
<rect x="544.487" y="482.864" fill="none" stroke="#EF885A" stroke-miterlimit="10" width="72.895" height="12.391"/>
<rect x="450.447" y="550.448" fill="none" stroke="#EF885A" stroke-miterlimit="10" width="72.895" height="5.102"/>
<rect x="450.447" y="496.011" fill="none" stroke="#EDC9B1" stroke-miterlimit="10" width="72.895" height="53.94"/>
<rect x="923.974" y="552.376" fill="none" stroke="#EF885A" stroke-miterlimit="10" width="72.894" height="2.915"/>
<rect x="923.974" y="510.653" fill="none" stroke="#EDC9B1" stroke-miterlimit="10" width="72.894" height="40.819"/>
<rect x="209.255" y="547.572" fill="none" stroke="#6DB6A0" stroke-miterlimit="10" width="72.895" height="8.019"/>
<rect x="209.255" y="490.771" fill="none" stroke="#BBD5C3" stroke-miterlimit="10" width="72.895" height="55.397"/>
<rect x="685.104" y="499.031" fill="none" stroke="#BBD5C3" stroke-miterlimit="10" width="72.893" height="50.296"/>
<rect x="685.104" y="550.081" fill="none" stroke="#6DB6A0" stroke-miterlimit="10" width="72.893" height="5.831"/>
<rect x="303.294" y="483.267" fill="none" stroke="#6DB6A0" stroke-miterlimit="10" width="72.895" height="8.747"/>
<rect x="779.565" y="482.785" fill="none" stroke="#6DB6A0" stroke-miterlimit="10" width="72.895" height="16.766"/>
<rect x="544.487" y="496.011" fill="none" stroke="#EDC9B1" stroke-miterlimit="10" width="72.895" height="53.94"/>
<rect x="303.294" y="493.169" fill="none" stroke="#BBD5C3" stroke-miterlimit="10" width="72.895" height="55.399"/>
<rect x="779.565" y="500.229" fill="none" stroke="#BBD5C3" stroke-miterlimit="10" width="72.895" height="50.299"/>
<rect x="1018.436" y="511.586" fill="none" stroke="#EDC9B1" stroke-miterlimit="10" width="72.895" height="40.818"/>
<rect x="1018.436" y="481.229" fill="none" stroke="#EF885A" stroke-miterlimit="10" width="72.895" height="29.157"/>
<rect x="544.965" y="682.574" fill="none" stroke="#EF885A" stroke-miterlimit="10" width="72.895" height="12.391"/>
<rect x="450.925" y="695.719" fill="none" stroke="#EDC9B1" stroke-miterlimit="10" width="72.896" height="53.941"/>
<rect x="924.45" y="710.361" fill="none" stroke="#EDC9B1" stroke-miterlimit="10" width="72.895" height="40.821"/>
<rect x="209.733" y="690.481" fill="none" stroke="#BBD5C3" stroke-miterlimit="10" width="72.894" height="55.397"/>
<rect x="685.579" y="698.741" fill="none" stroke="#BBD5C3" stroke-miterlimit="10" width="72.895" height="50.296"/>
<rect x="303.772" y="682.975" fill="none" stroke="#6DB6A0" stroke-miterlimit="10" width="72.895" height="8.747"/>
<rect x="780.044" y="682.494" fill="none" stroke="#6DB6A0" stroke-miterlimit="10" width="72.896" height="16.767"/>
<rect x="544.965" y="695.719" fill="none" stroke="#EDC9B1" stroke-miterlimit="10" width="72.895" height="53.941"/>
<rect x="303.772" y="692.877" fill="none" stroke="#BBD5C3" stroke-miterlimit="10" width="72.895" height="55.399"/>
<rect x="780.044" y="699.938" fill="none" stroke="#BBD5C3" stroke-miterlimit="10" width="72.896" height="50.299"/>
<rect x="1018.913" y="711.294" fill="none" stroke="#EDC9B1" stroke-miterlimit="10" width="72.895" height="40.818"/>
<rect x="1018.913" y="680.938" fill="none" stroke="#EF885A" stroke-miterlimit="10" width="72.895" height="29.158"/>
<rect x="494.895" y="237.703" fill="none" width="272.731" height="31.756"/>
<text transform="matrix(1 0 0 1 540.0615 258.6465)" fill="#767C6D" font-family="'Muli'" font-size="28.7294">GOVERNORS</text>
<rect x="393.544" y="441.338" fill="none" width="475.433" height="23.508"/>
<text transform="matrix(1 0 0 1 429.478 462.2813)" fill="#767C6D" font-family="'Muli'" font-size="28.7294">US FEDERAL COURT JUDGES</text>
<rect x="441.02" y="642.887" fill="none" width="380.479" height="23.505"/>
<text transform="matrix(1 0 0 1 449.1592 663.8301)" fill="#767C6D" font-family="'Muli'" font-size="28.7294">US STATE COURT JUDGES</text>
<g>
	<path fill="#EF885A" d="M439.914,300.245c-1.44,0.079-3.174,0.172-4.459,0.155v0.047c1.21,0.356,2.498,0.787,3.924,1.313
		l5.012,1.843v1.022l-4.922,1.688c-1.456,0.494-2.789,0.914-4.014,1.208v0.032c1.286,0.029,3.02,0.106,4.566,0.199l4.431,0.278
		v1.285l-10.331-0.729v-1.718l4.996-1.78c1.271-0.433,2.407-0.789,3.479-1.053v-0.046c-1.043-0.265-2.175-0.635-3.479-1.101
		l-4.996-1.856v-1.719l10.331-0.649v1.315L439.914,300.245z"/>
	<path fill="#EF885A" d="M439.608,291.194v4.056h3.726v-4.521h1.118v5.868h-10.331v-5.637h1.119v4.289h3.264v-4.056L439.608,291.194
		L439.608,291.194z"/>
	<path fill="#EF885A" d="M444.451,288.983H434.12v-1.472l5.227-3.344c1.211-0.772,2.298-1.377,3.357-1.871l-0.017-0.032
		c-1.38,0.123-2.636,0.155-4.244,0.155h-4.323v-1.271h10.331v1.362l-5.242,3.313c-1.15,0.729-2.331,1.424-3.449,1.95l0.016,0.047
		c1.304-0.077,2.546-0.108,4.262-0.108h4.415L444.451,288.983L444.451,288.983z"/>
</g>
<g>
	<path fill="#6DB6A0" d="M201.892,332.479l-10.332,2.648V333.7l5.229-1.238c1.287-0.309,2.575-0.587,3.571-0.772v-0.031
		c-1.027-0.17-2.253-0.494-3.587-0.852l-5.212-1.394v-1.409l5.243-1.267c1.227-0.297,2.453-0.574,3.542-0.729v-0.03
		c-1.135-0.216-2.285-0.513-3.573-0.836l-5.212-1.378v-1.377l10.332,2.957v1.408l-5.379,1.315c-1.319,0.325-2.331,0.541-3.374,0.681
		v0.03c1.027,0.187,2.04,0.418,3.374,0.806l5.379,1.487L201.892,332.479L201.892,332.479z"/>
	<path fill="#6DB6A0" d="M196.62,312.174c3.556,0,5.442,2.186,5.442,4.846c0,2.755-2.115,4.69-5.243,4.69
		c-3.28,0-5.426-2.059-5.426-4.846C191.393,314.018,193.553,312.174,196.62,312.174z M196.789,320.27
		c2.208,0,4.185-1.205,4.185-3.326c0-2.137-1.948-3.344-4.293-3.344c-2.054,0-4.2,1.082-4.2,3.326
		C192.48,319.155,194.52,320.27,196.789,320.27z"/>
	<path fill="#6DB6A0" d="M197.355,301.636c-1.441,0.077-3.173,0.17-4.461,0.155v0.046c1.211,0.358,2.5,0.79,3.924,1.315l5.013,1.842
		v1.021l-4.92,1.688c-1.457,0.494-2.791,0.911-4.017,1.207v0.03c1.288,0.03,3.021,0.108,4.569,0.198l4.429,0.28v1.285l-10.332-0.729
		v-1.719l4.998-1.779c1.272-0.434,2.407-0.789,3.479-1.053v-0.045c-1.042-0.265-2.177-0.636-3.479-1.103l-4.998-1.856v-1.718
		l10.332-0.649v1.316L197.355,301.636z"/>
	<path fill="#6DB6A0" d="M197.049,292.585v4.056h3.725v-4.521h1.118v5.866H191.56v-5.633h1.12v4.287h3.265v-4.056L197.049,292.585
		L197.049,292.585z"/>
	<path fill="#6DB6A0" d="M201.892,290.374H191.56v-1.473l5.229-3.343c1.21-0.772,2.299-1.376,3.356-1.872l-0.015-0.029
		c-1.379,0.121-2.637,0.152-4.247,0.152h-4.324v-1.269h10.332v1.36l-5.242,3.313c-1.15,0.728-2.331,1.426-3.45,1.95l0.016,0.046
		c1.303-0.076,2.544-0.107,4.261-0.107h4.415L201.892,290.374L201.892,290.374z"/>
</g>
<g>
	<path fill="#EF885A" d="M909.253,314.684c-0.123-0.59-0.215-1.519-0.215-2.463c0-1.347,0.229-2.213,0.752-2.861
		c0.397-0.543,1.012-0.867,1.824-0.867c0.995,0,1.87,0.664,2.27,1.765h0.029c0.246-0.991,1.057-2.153,2.592-2.153
		c0.887,0,1.563,0.356,2.068,0.884c0.659,0.728,0.967,1.902,0.967,3.607c0,0.927-0.063,1.64-0.123,2.09L909.253,314.684
		L909.253,314.684z M913.485,313.334v-1.222c0-1.424-0.736-2.261-1.732-2.261c-1.213,0-1.688,0.931-1.688,2.291
		c0,0.62,0.046,0.976,0.093,1.19L913.485,313.334L913.485,313.334z M918.436,313.334c0.047-0.263,0.063-0.646,0.063-1.128
		c0-1.396-0.506-2.678-2.01-2.678c-1.41,0-1.992,1.222-1.992,2.691v1.113L918.436,313.334L918.436,313.334z"/>
	<path fill="#EF885A" d="M914.173,297.378c3.56,0,5.443,2.184,5.443,4.846c0,2.756-2.115,4.69-5.244,4.69
		c-3.279,0-5.428-2.06-5.428-4.846C908.944,299.222,911.107,297.378,914.173,297.378z M914.343,305.474
		c2.207,0,4.185-1.205,4.185-3.328c0-2.135-1.947-3.342-4.291-3.342c-2.056,0-4.201,1.084-4.201,3.328
		C910.034,304.36,912.073,305.474,914.343,305.474z"/>
	<path fill="#EF885A" d="M919.448,293.745h-4.386l-5.948,3.297v-1.533l2.852-1.471c0.783-0.402,1.412-0.712,2.131-1.037v-0.031
		c-0.674-0.293-1.348-0.649-2.131-1.053l-2.852-1.502v-1.531l5.934,3.498h4.4V293.745z"/>
	<path fill="#EF885A" d="M917.821,288.081c0.368-0.604,0.676-1.485,0.676-2.415c0-1.377-0.721-2.183-1.762-2.183
		c-0.968,0-1.521,0.56-2.058,1.967c-0.596,1.703-1.471,2.756-2.926,2.756c-1.611,0-2.809-1.348-2.809-3.375
		c0-1.067,0.246-1.842,0.506-2.307l1.09,0.371c-0.184,0.342-0.49,1.038-0.49,1.981c0,1.424,0.844,1.967,1.549,1.967
		c0.967,0,1.441-0.636,1.994-2.074c0.672-1.764,1.519-2.663,3.033-2.663c1.594,0,2.975,1.19,2.975,3.653
		c0,1.006-0.291,2.104-0.66,2.662L917.821,288.081z"/>
</g>
<g>
	<path fill="#6DB6A0" d="M677.401,310.591c0.217,0.605,0.567,1.796,0.567,3.205c0,1.578-0.397,2.879-1.362,3.901
		c-0.859,0.896-2.238,1.455-3.849,1.455c-3.082-0.017-5.334-2.151-5.334-5.649c0-1.209,0.26-2.153,0.476-2.603l1.088,0.325
		c-0.246,0.559-0.445,1.255-0.445,2.309c0,2.538,1.564,4.193,4.154,4.193c2.621,0,4.17-1.595,4.17-4.025
		c0-0.881-0.123-1.486-0.275-1.795h-3.082v2.121h-1.072v-3.438L677.401,310.591L677.401,310.591z"/>
	<path fill="#6DB6A0" d="M667.532,307.188h10.33v1.349h-10.33V307.188z"/>
	<path fill="#6DB6A0" d="M667.669,304.838c-0.137-0.681-0.215-1.657-0.215-2.586c0-1.44,0.262-2.367,0.844-3.017
		c0.459-0.526,1.164-0.821,1.963-0.821c1.363,0,2.269,0.867,2.636,1.967h0.045c0.274-0.807,1.016-1.287,2.086-1.534
		c1.44-0.34,2.438-0.588,2.836-0.806v1.394c-0.291,0.17-1.181,0.403-2.467,0.698c-1.427,0.308-1.964,0.865-2.011,2.089v1.27h4.478
		v1.347L667.669,304.838L667.669,304.838z M672.376,303.491v-1.379c0-1.438-0.783-2.352-1.963-2.352
		c-1.334,0-1.916,0.975-1.933,2.398c0,0.65,0.062,1.113,0.123,1.332L672.376,303.491L672.376,303.491z"/>
	<path fill="#6DB6A0" d="M667.532,296.511v-1.345h9.211v-4.458h1.119v5.803H667.532z"/>
	<path fill="#6DB6A0" d="M676.237,289.395c0.369-0.606,0.676-1.487,0.676-2.416c0-1.377-0.721-2.183-1.762-2.183
		c-0.968,0-1.521,0.56-2.056,1.968c-0.598,1.702-1.473,2.756-2.928,2.756c-1.609,0-2.807-1.349-2.807-3.375
		c0-1.069,0.244-1.844,0.508-2.308l1.086,0.373c-0.182,0.339-0.488,1.035-0.488,1.979c0,1.425,0.842,1.966,1.549,1.966
		c0.964,0,1.439-0.634,1.99-2.074c0.674-1.765,1.519-2.662,3.035-2.662c1.594,0,2.975,1.192,2.975,3.653
		c0,1.007-0.291,2.105-0.659,2.664L676.237,289.395z"/>
</g>
<g>
	<path fill="#EF885A" d="M439.913,501.607c-1.44,0.075-3.173,0.17-4.458,0.153v0.045c1.208,0.356,2.497,0.791,3.923,1.317
		l5.011,1.843v1.021l-4.92,1.687c-1.456,0.496-2.791,0.914-4.014,1.207v0.033c1.286,0.03,3.018,0.107,4.566,0.2l4.431,0.276v1.284
		l-10.331-0.726v-1.717l4.995-1.782c1.272-0.434,2.407-0.787,3.481-1.052v-0.048c-1.043-0.263-2.177-0.636-3.481-1.099l-4.995-1.858
		v-1.719l10.331-0.648v1.314L439.913,501.607z"/>
	<path fill="#EF885A" d="M439.605,492.558v4.054h3.727v-4.52h1.119v5.865H434.12v-5.634h1.119v4.287h3.264v-4.054L439.605,492.558
		L439.605,492.558z"/>
	<path fill="#EF885A" d="M444.451,490.345H434.12v-1.472l5.227-3.342c1.211-0.774,2.3-1.379,3.356-1.875l-0.014-0.03
		c-1.382,0.125-2.64,0.155-4.247,0.155h-4.322v-1.271h10.331v1.364l-5.243,3.312c-1.149,0.729-2.331,1.425-3.449,1.951l0.015,0.045
		c1.304-0.075,2.546-0.105,4.262-0.105h4.416V490.345L444.451,490.345z"/>
</g>
<g>
	<path fill="#6DB6A0" d="M201.892,533.473l-10.332,2.647v-1.424l5.229-1.238c1.287-0.31,2.575-0.59,3.571-0.772v-0.031
		c-1.027-0.17-2.253-0.496-3.587-0.854l-5.212-1.394v-1.408l5.244-1.268c1.226-0.297,2.452-0.574,3.542-0.729v-0.029
		c-1.134-0.219-2.285-0.512-3.573-0.838l-5.212-1.377v-1.377l10.332,2.957v1.409l-5.379,1.314c-1.319,0.324-2.331,0.542-3.373,0.682
		v0.03c1.027,0.187,2.039,0.418,3.373,0.806l5.379,1.485v1.408H201.892z"/>
	<path fill="#6DB6A0" d="M196.62,513.168c3.556,0,5.442,2.183,5.442,4.843c0,2.756-2.115,4.692-5.243,4.692
		c-3.28,0-5.426-2.058-5.426-4.845C191.393,515.009,193.554,513.168,196.62,513.168z M196.789,521.263
		c2.208,0,4.185-1.207,4.185-3.328c0-2.136-1.948-3.344-4.293-3.344c-2.053,0-4.2,1.084-4.2,3.329
		C192.48,520.149,194.52,521.263,196.789,521.263z"/>
	<path fill="#6DB6A0" d="M197.355,502.63c-1.441,0.078-3.173,0.17-4.461,0.154v0.047c1.211,0.355,2.5,0.789,3.924,1.315l5.013,1.842
		v1.021l-4.92,1.688c-1.457,0.496-2.791,0.914-4.017,1.207v0.03c1.288,0.032,3.02,0.11,4.568,0.201l4.429,0.278v1.286l-10.332-0.729
		v-1.716l4.998-1.784c1.272-0.434,2.407-0.789,3.48-1.05v-0.047c-1.042-0.263-2.177-0.635-3.48-1.101l-4.998-1.856V501.7
		l10.332-0.649v1.315L197.355,502.63z"/>
	<path fill="#6DB6A0" d="M197.049,493.578v4.055h3.726v-4.519h1.118v5.864H191.56v-5.634h1.12v4.287h3.265v-4.055L197.049,493.578
		L197.049,493.578z"/>
	<path fill="#6DB6A0" d="M201.892,491.369H191.56v-1.473l5.229-3.346c1.21-0.771,2.299-1.377,3.356-1.871l-0.015-0.031
		c-1.379,0.123-2.637,0.154-4.247,0.154h-4.324v-1.269h10.332v1.36l-5.242,3.313c-1.15,0.728-2.33,1.423-3.45,1.949l0.016,0.049
		c1.303-0.078,2.544-0.108,4.261-0.108h4.415L201.892,491.369L201.892,491.369z"/>
</g>
<g>
	<path fill="#EF885A" d="M909.253,515.66c-0.125-0.588-0.215-1.518-0.215-2.461c0-1.348,0.229-2.213,0.752-2.862
		c0.397-0.541,1.012-0.869,1.822-0.869c0.998,0,1.87,0.668,2.27,1.766h0.031c0.246-0.988,1.057-2.149,2.59-2.149
		c0.89,0,1.563,0.354,2.07,0.881c0.658,0.729,0.965,1.903,0.965,3.606c0,0.93-0.062,1.642-0.121,2.09L909.253,515.66L909.253,515.66
		z M913.482,514.316v-1.227c0-1.424-0.733-2.259-1.729-2.259c-1.213,0-1.688,0.929-1.688,2.291c0,0.619,0.049,0.976,0.092,1.192
		h3.326V514.316z M918.436,514.316c0.047-0.266,0.061-0.651,0.061-1.132c0-1.395-0.506-2.679-2.008-2.679
		c-1.41,0-1.992,1.225-1.992,2.692v1.117L918.436,514.316L918.436,514.316z"/>
	<path fill="#EF885A" d="M914.173,498.357c3.56,0,5.443,2.183,5.443,4.845c0,2.754-2.115,4.691-5.244,4.691
		c-3.279,0-5.428-2.062-5.428-4.847C908.944,500.2,911.107,498.357,914.173,498.357z M914.341,506.452
		c2.209,0,4.187-1.207,4.187-3.328c0-2.135-1.947-3.342-4.291-3.342c-2.056,0-4.201,1.082-4.201,3.327
		C910.034,505.337,912.073,506.452,914.341,506.452z"/>
	<path fill="#EF885A" d="M919.446,494.723h-4.384l-5.948,3.299v-1.533l2.852-1.472c0.783-0.4,1.412-0.712,2.129-1.034v-0.033
		c-0.672-0.293-1.346-0.649-2.129-1.053l-2.852-1.5v-1.533l5.932,3.498h4.4V494.723z"/>
	<path fill="#EF885A" d="M917.821,489.063c0.368-0.606,0.674-1.487,0.674-2.416c0-1.38-0.722-2.183-1.763-2.183
		c-0.967,0-1.518,0.558-2.055,1.963c-0.596,1.705-1.471,2.756-2.926,2.756c-1.611,0-2.809-1.347-2.809-3.372
		c0-1.067,0.246-1.843,0.506-2.308l1.09,0.372c-0.184,0.341-0.49,1.037-0.49,1.98c0,1.424,0.844,1.967,1.549,1.967
		c0.965,0,1.441-0.636,1.992-2.074c0.674-1.766,1.521-2.663,3.035-2.663c1.594,0,2.975,1.192,2.975,3.653
		c0,1.006-0.291,2.104-0.66,2.661L917.821,489.063z"/>
</g>
<g>
	<path fill="#6DB6A0" d="M677.401,512.408c0.215,0.604,0.565,1.793,0.565,3.204c0,1.578-0.396,2.88-1.363,3.898
		c-0.858,0.898-2.237,1.455-3.846,1.455c-3.082-0.016-5.336-2.148-5.336-5.648c0-1.207,0.262-2.151,0.475-2.602l1.089,0.326
		c-0.246,0.558-0.443,1.254-0.443,2.308c0,2.536,1.563,4.194,4.154,4.194c2.619,0,4.17-1.596,4.17-4.024
		c0-0.883-0.125-1.486-0.277-1.797h-3.08v2.121h-1.074v-3.437L677.401,512.408L677.401,512.408z"/>
	<path fill="#6DB6A0" d="M667.53,509.005h10.332v1.347H667.53V509.005z"/>
	<path fill="#6DB6A0" d="M667.667,506.654c-0.137-0.683-0.213-1.657-0.213-2.585c0-1.441,0.26-2.369,0.842-3.021
		c0.461-0.523,1.166-0.821,1.963-0.821c1.365,0,2.269,0.867,2.635,1.968h0.048c0.274-0.806,1.014-1.286,2.086-1.532
		c1.438-0.341,2.436-0.59,2.836-0.804v1.392c-0.291,0.17-1.181,0.403-2.47,0.697c-1.426,0.309-1.963,0.866-2.01,2.09v1.268h4.479
		v1.35L667.667,506.654L667.667,506.654z M672.374,505.306v-1.376c0-1.439-0.783-2.354-1.963-2.354c-1.332,0-1.916,0.978-1.933,2.4
		c0,0.651,0.063,1.114,0.125,1.329H672.374z"/>
	<path fill="#6DB6A0" d="M667.53,498.329v-1.348h9.211v-4.459h1.121v5.807H667.53z"/>
	<path fill="#6DB6A0" d="M676.235,491.211c0.368-0.604,0.676-1.485,0.676-2.416c0-1.377-0.721-2.182-1.764-2.182
		c-0.966,0-1.519,0.558-2.054,1.965c-0.598,1.703-1.471,2.756-2.928,2.756c-1.609,0-2.805-1.346-2.805-3.375
		c0-1.067,0.244-1.842,0.506-2.307l1.088,0.372c-0.186,0.341-0.49,1.036-0.49,1.98c0,1.423,0.842,1.966,1.547,1.966
		c0.966,0,1.441-0.636,1.992-2.073c0.674-1.766,1.521-2.663,3.035-2.663c1.594,0,2.977,1.191,2.977,3.652
		c0,1.006-0.293,2.104-0.659,2.664L676.235,491.211z"/>
</g>
<g>
	<path fill="#EF885A" d="M439.915,702.967c-1.44,0.078-3.174,0.174-4.459,0.155v0.048c1.21,0.356,2.498,0.79,3.924,1.315
		l5.012,1.842v1.021l-4.921,1.688c-1.455,0.494-2.789,0.912-4.014,1.207v0.031c1.286,0.029,3.02,0.105,4.567,0.197l4.43,0.28v1.283
		l-10.331-0.727v-1.719l4.997-1.779c1.271-0.434,2.407-0.79,3.479-1.053v-0.047c-1.043-0.265-2.176-0.636-3.479-1.097l-4.997-1.86
		v-1.718l10.331-0.649v1.315L439.915,702.967z"/>
	<path fill="#EF885A" d="M439.608,693.918v4.056h3.726v-4.521h1.118v5.866h-10.331v-5.636h1.119v4.289h3.264v-4.056L439.608,693.918
		L439.608,693.918z"/>
	<path fill="#EF885A" d="M444.452,691.706h-10.331v-1.472l5.226-3.344c1.211-0.772,2.3-1.377,3.358-1.874l-0.018-0.03
		c-1.379,0.127-2.636,0.154-4.243,0.154h-4.323v-1.268h10.331v1.36l-5.242,3.313c-1.149,0.729-2.331,1.424-3.45,1.951l0.017,0.045
		c1.303-0.078,2.546-0.106,4.262-0.106h4.414V691.706z"/>
</g>
<g>
	<path fill="#6DB6A0" d="M201.891,734.468l-10.332,2.646v-1.424l5.228-1.24c1.287-0.312,2.575-0.587,3.572-0.771v-0.032
		c-1.028-0.169-2.253-0.494-3.587-0.852l-5.212-1.394v-1.409l5.243-1.27c1.227-0.295,2.454-0.573,3.542-0.728v-0.031
		c-1.136-0.215-2.285-0.51-3.573-0.835l-5.212-1.377v-1.378l10.332,2.957v1.408l-5.38,1.313c-1.319,0.327-2.33,0.543-3.374,0.684
		v0.029c1.027,0.188,2.04,0.418,3.374,0.807l5.38,1.484L201.891,734.468L201.891,734.468z"/>
	<path fill="#6DB6A0" d="M196.619,714.161c3.556,0,5.442,2.183,5.442,4.844c0,2.756-2.116,4.692-5.244,4.692
		c-3.28,0-5.426-2.06-5.426-4.847C191.391,716.004,193.552,714.161,196.619,714.161z M196.787,722.257
		c2.208,0,4.185-1.207,4.185-3.329c0-2.134-1.948-3.341-4.292-3.341c-2.055,0-4.2,1.08-4.2,3.326
		C192.479,721.145,194.518,722.257,196.787,722.257z"/>
	<path fill="#6DB6A0" d="M197.354,703.623c-1.44,0.077-3.173,0.168-4.461,0.153v0.048c1.211,0.355,2.5,0.79,3.925,1.314l5.013,1.842
		v1.022l-4.921,1.688c-1.457,0.493-2.79,0.911-4.017,1.206v0.03c1.289,0.033,3.021,0.107,4.569,0.199l4.43,0.28v1.284l-10.332-0.728
		v-1.719l4.998-1.779c1.271-0.435,2.407-0.789,3.479-1.053v-0.047c-1.042-0.266-2.177-0.634-3.479-1.102l-4.998-1.856v-1.717
		l10.332-0.649v1.315L197.354,703.623z"/>
	<path fill="#6DB6A0" d="M197.048,694.568v4.06h3.725v-4.521h1.119v5.866H191.56v-5.634h1.119v4.287h3.265v-4.06L197.048,694.568
		L197.048,694.568z"/>
	<path fill="#6DB6A0" d="M201.891,692.361h-10.332v-1.474l5.228-3.343c1.211-0.771,2.299-1.377,3.357-1.872l-0.015-0.031
		c-1.379,0.121-2.637,0.153-4.246,0.153h-4.324v-1.268h10.332v1.359l-5.242,3.313c-1.15,0.728-2.331,1.426-3.45,1.95l0.016,0.046
		c1.303-0.078,2.544-0.106,4.261-0.106h4.415V692.361z"/>
</g>
<g>
	<path fill="#EF885A" d="M909.255,716.641c-0.123-0.59-0.217-1.519-0.217-2.463c0-1.346,0.229-2.213,0.752-2.859
		c0.397-0.545,1.014-0.869,1.826-0.869c0.994,0,1.869,0.666,2.27,1.765h0.029c0.246-0.99,1.057-2.151,2.59-2.151
		c0.89,0,1.563,0.356,2.07,0.882c0.66,0.729,0.965,1.904,0.965,3.607c0,0.928-0.061,1.642-0.123,2.09L909.255,716.641
		L909.255,716.641z M913.485,715.293v-1.224c0-1.423-0.734-2.259-1.732-2.259c-1.211,0-1.688,0.929-1.688,2.291
		c0,0.62,0.048,0.976,0.095,1.19L913.485,715.293L913.485,715.293z M918.438,715.293c0.045-0.263,0.061-0.648,0.061-1.13
		c0-1.394-0.506-2.676-2.008-2.676c-1.41,0-1.992,1.221-1.992,2.689v1.115L918.438,715.293L918.438,715.293z"/>
	<path fill="#EF885A" d="M914.175,699.338c3.558,0,5.441,2.184,5.441,4.843c0,2.759-2.115,4.692-5.242,4.692
		c-3.279,0-5.428-2.06-5.428-4.846C908.946,701.179,911.107,699.338,914.175,699.338z M914.343,707.433
		c2.209,0,4.187-1.207,4.187-3.327c0-2.138-1.947-3.345-4.293-3.345c-2.054,0-4.199,1.084-4.199,3.329
		C910.036,706.317,912.075,707.433,914.343,707.433z"/>
	<path fill="#EF885A" d="M919.448,695.701h-4.384l-5.948,3.298v-1.533l2.85-1.47c0.785-0.401,1.412-0.711,2.133-1.036v-0.031
		c-0.676-0.295-1.348-0.65-2.133-1.053l-2.85-1.502v-1.531l5.932,3.498h4.4V695.701z"/>
	<path fill="#EF885A" d="M917.823,690.04c0.369-0.604,0.674-1.487,0.674-2.415c0-1.378-0.721-2.183-1.762-2.183
		c-0.966,0-1.519,0.558-2.056,1.965c-0.598,1.703-1.471,2.756-2.928,2.756c-1.609,0-2.807-1.349-2.807-3.373
		c0-1.069,0.246-1.842,0.506-2.31l1.09,0.373c-0.184,0.34-0.49,1.036-0.49,1.98c0,1.423,0.842,1.966,1.547,1.966
		c0.967,0,1.443-0.634,1.994-2.073c0.674-1.767,1.519-2.662,3.035-2.662c1.594,0,2.973,1.19,2.973,3.653
		c0,1.006-0.289,2.104-0.657,2.661L917.823,690.04z"/>
</g>
<g>
	<path fill="#6DB6A0" d="M677.401,714.223c0.217,0.604,0.567,1.795,0.567,3.204c0,1.58-0.397,2.88-1.362,3.9
		c-0.859,0.898-2.238,1.457-3.849,1.457c-3.082-0.018-5.334-2.152-5.334-5.651c0-1.208,0.26-2.149,0.476-2.602l1.088,0.328
		c-0.246,0.556-0.445,1.253-0.445,2.306c0,2.537,1.564,4.196,4.154,4.196c2.621,0,4.17-1.599,4.17-4.028
		c0-0.881-0.123-1.485-0.275-1.793h-3.082v2.121h-1.072v-3.438H677.401L677.401,714.223z"/>
	<path fill="#6DB6A0" d="M667.532,710.821h10.33v1.347h-10.33V710.821z"/>
	<path fill="#6DB6A0" d="M667.669,708.469c-0.137-0.68-0.215-1.654-0.215-2.584c0-1.441,0.262-2.37,0.844-3.02
		c0.459-0.525,1.164-0.82,1.963-0.82c1.363,0,2.269,0.867,2.636,1.965h0.045c0.274-0.805,1.016-1.284,2.086-1.529
		c1.44-0.341,2.438-0.591,2.836-0.809v1.396c-0.291,0.168-1.181,0.4-2.467,0.696c-1.427,0.309-1.964,0.866-2.011,2.089v1.269h4.478
		v1.348L667.669,708.469L667.669,708.469z M672.376,707.121v-1.377c0-1.439-0.783-2.354-1.963-2.354
		c-1.334,0-1.916,0.978-1.933,2.399c0,0.653,0.062,1.116,0.123,1.332H672.376L672.376,707.121z"/>
	<path fill="#6DB6A0" d="M667.532,700.144v-1.348h9.211v-4.455h1.119v5.803H667.532L667.532,700.144z"/>
	<path fill="#6DB6A0" d="M676.237,693.025c0.369-0.604,0.676-1.487,0.676-2.414c0-1.379-0.721-2.185-1.762-2.185
		c-0.968,0-1.521,0.56-2.056,1.967c-0.598,1.703-1.473,2.757-2.928,2.757c-1.609,0-2.807-1.349-2.807-3.375
		c0-1.067,0.244-1.843,0.508-2.31l1.086,0.373c-0.182,0.34-0.488,1.036-0.488,1.981c0,1.426,0.842,1.965,1.549,1.965
		c0.964,0,1.439-0.634,1.99-2.074c0.674-1.765,1.519-2.662,3.035-2.662c1.594,0,2.975,1.191,2.975,3.654
		c0,1.006-0.291,2.105-0.659,2.662L676.237,693.025z"/>
</g>
</svg>
