<?xml version="1.0" encoding="utf-8"?>
<!-- Generator: Adobe Illustrator 16.0.0, SVG Export Plug-In . SVG Version: 6.00 Build 0)  -->
<!DOCTYPE svg PUBLIC "-//W3C//DTD SVG 1.1//EN" "http://www.w3.org/Graphics/SVG/1.1/DTD/svg11.dtd">
<svg version="1.1" id="Layer_1" xmlns="http://www.w3.org/2000/svg" xmlns:xlink="http://www.w3.org/1999/xlink" x="0px" y="0px"
	 width="1280px" height="800px" viewBox="0 0 1280 800" enable-background="new 0 0 1280 800" xml:space="preserve">
<rect x="136.104" y="2.291" fill="#FFF0E1" width="1007.792" height="137.662"/>
<rect x="136.104" y="396.874" fill="#E3EFE5" width="1007.792" height="7.183"/>
<rect x="136.104" y="601.852" fill="#E3EFE5" width="1007.792" height="7.185"/>
<rect x="136.104" y="792.363" fill="#E3EFE5" width="1007.792" height="7.184"/>
<rect x="136.104" y="139.952" fill="#F4F7F4" width="1007.792" height="84.991"/>
<g>
	<rect x="211.166" y="278.257" fill="#FFF0E1" width="72.895" height="72.896"/>
	<rect x="210.743" y="336.542" opacity="0.5" fill="#767C6D" enable-background="new    " width="72.895" height="14.579"/>
</g>
<g>
	<rect x="305.206" y="278.257" fill="#E3EFE5" width="72.894" height="72.896"/>
	<rect x="305.206" y="278.257" opacity="0.5" fill="#767C6D" enable-background="new    " width="72.894" height="58.314"/>
</g>
<g>
	<rect x="210.743" y="483.35" fill="#FFF0E1" width="72.895" height="72.894"/>
	<rect x="210.743" y="542.393" opacity="0.5" fill="#767C6D" enable-background="new    " width="72.895" height="13.851"/>
</g>
<g>
	<rect x="305.207" y="483.35" fill="#E3EFE5" width="72.894" height="72.894"/>
	<rect x="305.206" y="483.35" opacity="0.5" fill="#767C6D" enable-background="new    " width="72.896" height="59.043"/>
</g>
<g>
	<rect x="210.743" y="688.439" fill="#FFF0E1" width="72.895" height="72.895"/>
	<rect x="210.743" y="743.693" opacity="0.5" fill="#767C6D" enable-background="new    " width="72.895" height="17.641"/>
</g>
<g>
	<rect x="305.207" y="688.439" fill="#E3EFE5" width="72.894" height="72.895"/>
	<rect x="305.206" y="688.439" opacity="0.5" fill="#767C6D" enable-background="new    " width="72.896" height="55.254"/>
</g>
<g>
	<rect x="452.358" y="277.47" fill="#FFF0E1" width="72.894" height="72.894"/>
	<rect x="451.935" y="335.755" opacity="0.5" fill="#767C6D" enable-background="new    " width="72.896" height="14.58"/>
</g>
<g>
	<rect x="546.396" y="277.47" fill="#E3EFE5" width="72.896" height="72.894"/>
	<rect x="546.396" y="277.47" opacity="0.5" fill="#767C6D" enable-background="new    " width="72.896" height="58.313"/>
</g>
<g>
	<rect x="451.935" y="482.561" fill="#FFF0E1" width="72.896" height="72.896"/>
	<rect x="451.935" y="541.604" opacity="0.5" fill="#767C6D" enable-background="new    " width="72.896" height="13.853"/>
</g>
<g>
	<rect x="546.399" y="482.561" fill="#E3EFE5" width="72.895" height="72.896"/>
	<rect x="546.396" y="482.561" opacity="0.5" fill="#767C6D" enable-background="new    " width="72.896" height="59.043"/>
</g>
<g>
	<rect x="451.935" y="687.652" fill="#FFF0E1" width="72.896" height="72.895"/>
	<rect x="451.935" y="742.906" opacity="0.5" fill="#767C6D" enable-background="new    " width="72.896" height="17.641"/>
</g>
<g>
	<rect x="546.399" y="687.652" fill="#E3EFE5" width="72.895" height="72.895"/>
	<rect x="546.396" y="687.652" opacity="0.5" fill="#767C6D" enable-background="new    " width="72.896" height="55.254"/>
</g>
<g>
	<rect x="687.438" y="278.257" fill="#FFF0E1" width="72.895" height="72.896"/>
	<rect x="687.013" y="336.542" opacity="0.5" fill="#767C6D" enable-background="new    " width="72.896" height="14.579"/>
</g>
<g>
	<rect x="781.477" y="278.257" fill="#E3EFE5" width="72.895" height="72.896"/>
	<rect x="781.477" y="278.257" opacity="0.5" fill="#767C6D" enable-background="new    " width="72.895" height="58.314"/>
</g>
<g>
	<rect x="687.013" y="483.35" fill="#FFF0E1" width="72.896" height="72.892"/>
	<rect x="687.013" y="542.391" opacity="0.5" fill="#767C6D" enable-background="new    " width="72.896" height="13.851"/>
</g>
<g>
	<rect x="781.479" y="483.35" fill="#E3EFE5" width="72.895" height="72.892"/>
	<rect x="781.477" y="483.35" opacity="0.5" fill="#767C6D" enable-background="new    " width="72.896" height="59.041"/>
</g>
<g>
	<rect x="687.013" y="688.439" fill="#FFF0E1" width="72.896" height="72.895"/>
	<rect x="687.013" y="743.693" opacity="0.5" fill="#767C6D" enable-background="new    " width="72.896" height="17.641"/>
</g>
<g>
	<rect x="781.479" y="688.439" fill="#E3EFE5" width="72.895" height="72.895"/>
	<rect x="781.477" y="688.439" opacity="0.5" fill="#767C6D" enable-background="new    " width="72.896" height="55.254"/>
</g>
<g>
	<rect x="926.308" y="277.47" fill="#FFF0E1" width="72.896" height="72.894"/>
	<rect x="925.884" y="335.755" opacity="0.5" fill="#767C6D" enable-background="new    " width="72.896" height="14.58"/>
</g>
<g>
	<rect x="1020.347" y="277.47" fill="#E3EFE5" width="72.896" height="72.894"/>
	<rect x="1020.347" y="277.47" opacity="0.5" fill="#767C6D" enable-background="new    " width="72.896" height="58.313"/>
</g>
<g>
	<rect x="925.884" y="482.561" fill="#FFF0E1" width="72.896" height="72.896"/>
	<rect x="925.884" y="541.604" opacity="0.5" fill="#767C6D" enable-background="new    " width="72.896" height="13.853"/>
</g>
<g>
	<rect x="1020.349" y="482.561" fill="#E3EFE5" width="72.894" height="72.896"/>
	<rect x="1020.347" y="482.561" opacity="0.5" fill="#767C6D" enable-background="new    " width="72.896" height="59.043"/>
</g>
<g>
	<rect x="925.884" y="687.652" fill="#FFF0E1" width="72.896" height="72.896"/>
	<rect x="925.884" y="742.906" opacity="0.5" fill="#767C6D" enable-background="new    " width="72.896" height="17.643"/>
</g>
<g>
	<rect x="1020.349" y="687.652" fill="#E3EFE5" width="72.894" height="72.896"/>
	<rect x="1020.347" y="687.652" opacity="0.5" fill="#767C6D" enable-background="new    " width="72.896" height="55.254"/>
</g>
<rect x="546.396" y="277.907" fill="none" stroke="#EF885A" stroke-miterlimit="10" width="72.896" height="12.392"/>
<rect x="452.358" y="345.489" fill="none" stroke="#EF885A" stroke-miterlimit="10" width="72.894" height="5.103"/>
<rect x="452.358" y="291.053" fill="none" stroke="#EDC9B1" stroke-miterlimit="10" width="72.894" height="53.941"/>
<rect x="925.884" y="347.42" fill="none" stroke="#EF885A" stroke-miterlimit="10" width="72.896" height="2.916"/>
<rect x="925.884" y="305.696" fill="none" stroke="#EDC9B1" stroke-miterlimit="10" width="72.896" height="40.82"/>
<rect x="211.167" y="342.616" fill="none" stroke="#6DB6A0" stroke-miterlimit="10" width="72.895" height="8.018"/>
<rect x="211.167" y="285.815" fill="none" stroke="#BBD5C3" stroke-miterlimit="10" width="72.895" height="55.399"/>
<rect x="687.013" y="294.074" fill="none" stroke="#BBD5C3" stroke-miterlimit="10" width="72.896" height="50.298"/>
<rect x="687.013" y="345.125" fill="none" stroke="#6DB6A0" stroke-miterlimit="10" width="72.896" height="5.832"/>
<rect x="305.206" y="278.31" fill="none" stroke="#6DB6A0" stroke-miterlimit="10" width="72.894" height="8.747"/>
<rect x="781.479" y="277.829" fill="none" stroke="#6DB6A0" stroke-miterlimit="10" width="72.895" height="16.766"/>
<rect x="546.396" y="291.053" fill="none" stroke="#EDC9B1" stroke-miterlimit="10" width="72.896" height="53.941"/>
<rect x="305.206" y="288.212" fill="none" stroke="#BBD5C3" stroke-miterlimit="10" width="72.894" height="55.398"/>
<rect x="781.479" y="295.272" fill="none" stroke="#BBD5C3" stroke-miterlimit="10" width="72.895" height="50.296"/>
<rect x="1020.347" y="306.627" fill="none" stroke="#EDC9B1" stroke-miterlimit="10" width="72.896" height="40.821"/>
<rect x="1020.347" y="276.271" fill="none" stroke="#EF885A" stroke-miterlimit="10" width="72.896" height="29.158"/>
<rect x="545.975" y="483.734" fill="none" stroke="#EF885A" stroke-miterlimit="10" width="72.896" height="12.395"/>
<rect x="451.935" y="551.316" fill="none" stroke="#EF885A" stroke-miterlimit="10" width="72.896" height="5.104"/>
<rect x="451.935" y="496.881" fill="none" stroke="#EDC9B1" stroke-miterlimit="10" width="72.896" height="53.941"/>
<rect x="925.462" y="540.066" fill="none" stroke="#EF885A" stroke-miterlimit="10" width="72.894" height="2.916"/>
<rect x="925.462" y="511.523" fill="none" stroke="#EDC9B1" stroke-miterlimit="10" width="72.894" height="40.819"/>
<rect x="210.743" y="548.441" fill="none" stroke="#6DB6A0" stroke-miterlimit="10" width="72.895" height="8.02"/>
<rect x="210.743" y="491.643" fill="none" stroke="#BBD5C3" stroke-miterlimit="10" width="72.895" height="55.4"/>
<rect x="686.591" y="499.9" fill="none" stroke="#BBD5C3" stroke-miterlimit="10" width="72.894" height="50.299"/>
<rect x="686.591" y="550.951" fill="none" stroke="#6DB6A0" stroke-miterlimit="10" width="72.894" height="5.832"/>
<rect x="304.782" y="484.137" fill="none" stroke="#6DB6A0" stroke-miterlimit="10" width="72.895" height="8.748"/>
<rect x="781.054" y="483.656" fill="none" stroke="#6DB6A0" stroke-miterlimit="10" width="72.896" height="16.766"/>
<rect x="545.975" y="496.881" fill="none" stroke="#EDC9B1" stroke-miterlimit="10" width="72.896" height="53.941"/>
<rect x="304.782" y="494.041" fill="none" stroke="#BBD5C3" stroke-miterlimit="10" width="72.895" height="55.398"/>
<rect x="781.054" y="501.1" fill="none" stroke="#BBD5C3" stroke-miterlimit="10" width="72.896" height="50.298"/>
<rect x="1019.923" y="512.453" fill="none" stroke="#EDC9B1" stroke-miterlimit="10" width="72.896" height="40.822"/>
<rect x="1019.923" y="482.1" fill="none" stroke="#EF885A" stroke-miterlimit="10" width="72.896" height="29.156"/>
<rect x="545.975" y="689.33" fill="none" stroke="#EF885A" stroke-miterlimit="10" width="72.895" height="12.395"/>
<rect x="451.934" y="756.914" fill="none" stroke="#EF885A" stroke-miterlimit="10" width="72.895" height="5.102"/>
<rect x="451.934" y="702.477" fill="none" stroke="#EDC9B1" stroke-miterlimit="10" width="72.895" height="53.941"/>
<rect x="925.462" y="758.844" fill="none" stroke="#EF885A" stroke-miterlimit="10" width="72.894" height="2.914"/>
<rect x="925.462" y="717.119" fill="none" stroke="#EDC9B1" stroke-miterlimit="10" width="72.894" height="40.82"/>
<rect x="210.743" y="754.039" fill="none" stroke="#6DB6A0" stroke-miterlimit="10" width="72.895" height="8.018"/>
<rect x="210.743" y="697.24" fill="none" stroke="#BBD5C3" stroke-miterlimit="10" width="72.895" height="55.396"/>
<rect x="686.591" y="705.496" fill="none" stroke="#BBD5C3" stroke-miterlimit="10" width="72.894" height="50.299"/>
<rect x="686.591" y="756.547" fill="none" stroke="#6DB6A0" stroke-miterlimit="10" width="72.894" height="5.832"/>
<rect x="304.782" y="689.734" fill="none" stroke="#6DB6A0" stroke-miterlimit="10" width="72.895" height="8.746"/>
<rect x="781.054" y="689.252" fill="none" stroke="#6DB6A0" stroke-miterlimit="10" width="72.896" height="16.766"/>
<rect x="545.975" y="702.477" fill="none" stroke="#EDC9B1" stroke-miterlimit="10" width="72.895" height="53.941"/>
<rect x="304.782" y="699.637" fill="none" stroke="#BBD5C3" stroke-miterlimit="10" width="72.895" height="55.396"/>
<rect x="781.054" y="706.695" fill="none" stroke="#BBD5C3" stroke-miterlimit="10" width="72.896" height="50.297"/>
<rect x="1019.923" y="718.049" fill="none" stroke="#EDC9B1" stroke-miterlimit="10" width="72.896" height="40.822"/>
<rect x="1019.923" y="687.693" fill="none" stroke="#EF885A" stroke-miterlimit="10" width="72.896" height="29.157"/>
<rect x="153.287" y="160.87" fill="none" stroke="#6DB6A0" stroke-miterlimit="10" width="32.319" height="32.319"/>
<rect x="322.3" y="160.87" fill="none" stroke="#BBD5C3" stroke-miterlimit="10" width="32.319" height="32.319"/>
<rect x="491.314" y="160.87" fill="none" stroke="#EF885A" stroke-miterlimit="10" width="32.318" height="32.319"/>
<rect x="660.329" y="160.87" fill="none" stroke="#EDC9B1" stroke-miterlimit="10" width="32.317" height="32.319"/>
<g>
	<rect x="829.341" y="160.271" fill="#FFF0E1" width="32.32" height="32.318"/>
	<rect x="829.341" y="181.734" opacity="0.4" fill="#767C6D" enable-background="new    " width="32.32" height="10.855"/>
</g>
<g>
	<rect x="998.354" y="160.271" fill="#E3EFE5" width="32.32" height="32.318"/>
	<rect x="998.354" y="160.271" opacity="0.4" fill="#767C6D" enable-background="new    " width="32.32" height="22.826"/>
</g>
<rect x="169.447" y="24.7" fill="none" width="950.64" height="121.266"/>
<text transform="matrix(1 0 0 1 172.8921 45.6436)" fill="#767C6D" font-family="'Muli'" font-size="28.7294">While </text>
<text transform="matrix(1 0 0 1 258.4351 45.6436)" fill="#6DB6A0" font-family="'Muli'" font-size="28.7294">92% </text>
<text transform="matrix(1 0 0 1 328.0713 45.6436)" fill="#767C6D" font-family="'Muli'" font-size="28.7294">of girls believe anyone can acquire the skills of leadership, </text>
<text transform="matrix(1 0 0 1 224.6343 80.1182)" fill="#767C6D" font-family="'Muli'" font-size="28.7294">only</text>
<text transform="matrix(1 0 0 1 281.125 80.1182)" fill="#6DB6A0" font-family="'Muli'" font-size="28.7294"> 21% </text>
<text transform="matrix(1 0 0 1 359.1631 80.1182)" fill="#767C6D" font-family="'Muli'" font-size="28.7294">believe they currently have most of the key qualities</text>
<text transform="matrix(1 0 0 1 450.7241 114.5938)" fill="#767C6D" font-family="'Muli'" font-size="28.7294">required to be a good leader </text>
<rect x="525.257" y="236.188" fill="none" width="214.98" height="31.76"/>
<text transform="matrix(1 0 0 1 577.5259 257.1309)" fill="#767C6D" font-family="'Muli'" font-size="28.7294">SENATE</text>
<rect x="416.908" y="441.328" fill="none" width="431.679" height="31.758"/>
<text transform="matrix(1 0 0 1 423.085 462.2695)" fill="#767C6D" font-family="'Muli'" font-size="28.7294">HOUSE OF REPRESENTATIVES</text>
<rect x="490.174" y="646.467" fill="none" width="285.147" height="31.76"/>
<g>
	<path fill="#EF885A" d="M441.403,299.283c-1.443,0.078-3.175,0.171-4.462,0.154v0.047c1.211,0.356,2.499,0.789,3.925,1.315
		l5.013,1.842v1.021l-4.92,1.688c-1.458,0.496-2.791,0.913-4.017,1.207v0.032c1.286,0.031,3.02,0.107,4.567,0.2l4.43,0.279v1.284
		l-10.331-0.728v-1.718l4.997-1.781c1.272-0.433,2.407-0.789,3.48-1.052v-0.047c-1.043-0.262-2.177-0.634-3.48-1.099l-4.997-1.857
		v-1.718l10.331-0.65v1.315L441.403,299.283z"/>
	<path fill="#EF885A" d="M441.096,290.231v4.056h3.726v-4.52h1.119v5.868h-10.332V290h1.12v4.288h3.264v-4.056L441.096,290.231
		L441.096,290.231z"/>
	<path fill="#EF885A" d="M445.939,288.02h-10.332v-1.47l5.228-3.343c1.211-0.773,2.298-1.378,3.356-1.873l-0.016-0.031
		c-1.38,0.124-2.636,0.155-4.246,0.155h-4.322v-1.27h10.332v1.362l-5.243,3.313c-1.149,0.726-2.331,1.424-3.449,1.95l0.015,0.046
		c1.305-0.077,2.546-0.107,4.262-0.107h4.416V288.02z"/>
</g>
<g>
	<path fill="#6DB6A0" d="M203.381,332.621l-10.332,2.646v-1.424l5.228-1.238c1.287-0.31,2.575-0.589,3.571-0.773v-0.031
		c-1.027-0.171-2.253-0.496-3.587-0.852l-5.212-1.395v-1.409l5.243-1.269c1.227-0.295,2.453-0.574,3.541-0.729v-0.03
		c-1.134-0.217-2.284-0.51-3.572-0.836l-5.212-1.378v-1.377l10.332,2.957v1.406l-5.38,1.316c-1.318,0.326-2.331,0.542-3.373,0.681
		v0.031c1.027,0.187,2.039,0.418,3.373,0.806l5.38,1.486V332.621z"/>
	<path fill="#6DB6A0" d="M198.108,312.317c3.556,0,5.442,2.183,5.442,4.844c0,2.755-2.115,4.689-5.244,4.689
		c-3.28,0-5.425-2.058-5.425-4.845C192.881,314.158,195.042,312.317,198.108,312.317z M198.277,320.412
		c2.208,0,4.186-1.208,4.186-3.329c0-2.135-1.948-3.343-4.293-3.343c-2.054,0-4.2,1.084-4.2,3.328
		C193.97,319.297,196.008,320.412,198.277,320.412z"/>
	<path fill="#6DB6A0" d="M198.844,301.778c-1.441,0.078-3.174,0.17-4.462,0.154v0.047c1.212,0.356,2.5,0.789,3.924,1.314
		l5.013,1.842v1.022l-4.92,1.687c-1.457,0.496-2.79,0.914-4.017,1.208v0.031c1.288,0.031,3.021,0.109,4.569,0.201l4.429,0.279v1.285
		l-10.332-0.728v-1.718l4.997-1.781c1.272-0.434,2.408-0.79,3.48-1.053v-0.045c-1.042-0.263-2.177-0.635-3.48-1.1l-4.997-1.857
		v-1.718l10.332-0.651v1.315L198.844,301.778z"/>
	<path fill="#6DB6A0" d="M198.537,292.726v4.056h3.726v-4.52h1.119v5.866H193.05v-5.634h1.119v4.287h3.265v-4.056L198.537,292.726
		L198.537,292.726z"/>
	<path fill="#6DB6A0" d="M203.381,290.515h-10.332v-1.471l5.228-3.343c1.211-0.773,2.3-1.377,3.357-1.872l-0.015-0.031
		c-1.379,0.123-2.637,0.154-4.247,0.154h-4.323v-1.269h10.332v1.362l-5.242,3.313c-1.15,0.726-2.331,1.424-3.45,1.949l0.016,0.047
		c1.303-0.076,2.544-0.107,4.261-0.107h4.415V290.515z"/>
</g>
<g>
	<path fill="#EF885A" d="M910.743,314.869c-0.125-0.588-0.217-1.519-0.217-2.461c0-1.348,0.229-2.214,0.752-2.864
		c0.397-0.542,1.012-0.867,1.823-0.867c0.996,0,1.871,0.666,2.271,1.766h0.031c0.243-0.991,1.057-2.151,2.59-2.151
		c0.889,0,1.563,0.355,2.069,0.882c0.658,0.729,0.966,1.905,0.966,3.606c0,0.929-0.062,1.641-0.123,2.09H910.743L910.743,314.869z
		 M914.974,313.522v-1.224c0-1.424-0.735-2.259-1.731-2.259c-1.211,0-1.688,0.929-1.688,2.291c0,0.619,0.048,0.975,0.095,1.191
		H914.974z M919.925,313.522c0.045-0.263,0.062-0.65,0.062-1.131c0-1.393-0.506-2.678-2.008-2.678c-1.41,0-1.992,1.223-1.992,2.694
		v1.114H919.925z"/>
	<path fill="#EF885A" d="M915.663,297.566c3.557,0,5.44,2.182,5.44,4.844c0,2.756-2.114,4.69-5.241,4.69
		c-3.281,0-5.429-2.061-5.429-4.846C910.436,299.408,912.597,297.566,915.663,297.566z M915.831,305.661
		c2.209,0,4.186-1.206,4.186-3.328c0-2.135-1.946-3.342-4.293-3.342c-2.055,0-4.198,1.083-4.198,3.328
		C911.523,304.547,913.563,305.661,915.831,305.661z"/>
	<path fill="#EF885A" d="M920.938,293.931h-4.386l-5.946,3.298v-1.533l2.85-1.471c0.783-0.402,1.412-0.712,2.133-1.037v-0.031
		c-0.676-0.294-1.35-0.65-2.133-1.053l-2.85-1.501v-1.533l5.932,3.499h4.4V293.931z"/>
	<path fill="#EF885A" d="M919.313,288.269c0.368-0.604,0.674-1.487,0.674-2.415c0-1.377-0.722-2.183-1.763-2.183
		c-0.965,0-1.518,0.558-2.055,1.965c-0.598,1.704-1.473,2.757-2.928,2.757c-1.609,0-2.808-1.347-2.808-3.375
		c0-1.068,0.246-1.842,0.506-2.307l1.091,0.372c-0.185,0.34-0.49,1.038-0.49,1.981c0,1.423,0.842,1.966,1.547,1.966
		c0.967,0,1.441-0.635,1.994-2.073c0.674-1.766,1.519-2.664,3.035-2.664c1.594,0,2.973,1.192,2.973,3.654
		c0,1.006-0.289,2.104-0.66,2.661L919.313,288.269z"/>
</g>
<g>
	<path fill="#6DB6A0" d="M678.89,308.266c0.218,0.604,0.568,1.796,0.568,3.205c0,1.579-0.398,2.879-1.363,3.901
		c-0.858,0.896-2.237,1.455-3.848,1.455c-3.082-0.016-5.334-2.15-5.334-5.65c0-1.208,0.26-2.149,0.473-2.6l1.091,0.325
		c-0.248,0.557-0.445,1.254-0.445,2.306c0,2.539,1.563,4.195,4.154,4.195c2.62,0,4.17-1.596,4.17-4.024
		c0-0.882-0.123-1.486-0.275-1.796h-3.082v2.121h-1.072v-3.438H678.89L678.89,308.266z"/>
	<path fill="#6DB6A0" d="M669.019,304.864h10.332v1.346h-10.332V304.864z"/>
	<path fill="#6DB6A0" d="M669.155,302.512c-0.138-0.681-0.213-1.657-0.213-2.585c0-1.44,0.262-2.369,0.842-3.02
		c0.461-0.525,1.166-0.82,1.963-0.82c1.365,0,2.27,0.868,2.637,1.967h0.045c0.275-0.806,1.017-1.286,2.086-1.532
		c1.441-0.341,2.438-0.59,2.836-0.806v1.393c-0.291,0.17-1.18,0.403-2.467,0.697c-1.426,0.309-1.963,0.867-2.01,2.089v1.27h4.477
		v1.347L669.155,302.512L669.155,302.512z M673.862,301.165v-1.377c0-1.439-0.781-2.353-1.961-2.353
		c-1.334,0-1.918,0.975-1.935,2.399c0,0.65,0.063,1.114,0.125,1.331H673.862L673.862,301.165z"/>
	<path fill="#6DB6A0" d="M669.019,294.186v-1.346h9.214v-4.459h1.118v5.805H669.019L669.019,294.186z"/>
	<path fill="#6DB6A0" d="M677.724,287.068c0.371-0.604,0.679-1.486,0.679-2.414c0-1.378-0.722-2.184-1.763-2.184
		c-0.967,0-1.52,0.559-2.055,1.966c-0.598,1.704-1.473,2.756-2.93,2.756c-1.607,0-2.806-1.346-2.806-3.375
		c0-1.067,0.244-1.841,0.506-2.306l1.089,0.372c-0.185,0.34-0.49,1.037-0.49,1.98c0,1.424,0.844,1.966,1.551,1.966
		c0.963,0,1.439-0.635,1.99-2.075c0.674-1.765,1.518-2.662,3.035-2.662c1.594,0,2.975,1.192,2.975,3.652
		c0,1.007-0.291,2.106-0.66,2.663L677.724,287.068z"/>
</g>
<g>
	<path fill="#EF885A" d="M441.401,504.238c-1.44,0.076-3.173,0.17-4.458,0.153v0.048c1.208,0.358,2.497,0.788,3.923,1.315
		l5.011,1.842v1.021l-4.92,1.688c-1.457,0.498-2.791,0.914-4.014,1.209v0.031c1.285,0.031,3.018,0.107,4.565,0.199l4.431,0.279
		v1.284l-10.331-0.727v-1.719l4.995-1.779c1.273-0.436,2.408-0.791,3.48-1.053v-0.047c-1.042-0.265-2.175-0.638-3.48-1.101
		l-4.995-1.858v-1.718l10.331-0.649v1.315L441.401,504.238z"/>
	<path fill="#EF885A" d="M441.094,495.188v4.058h3.726v-4.521h1.12v5.869h-10.332v-5.637h1.119v4.289h3.265v-4.058H441.094z"/>
	<path fill="#EF885A" d="M445.939,492.977h-10.332v-1.471l5.228-3.344c1.211-0.773,2.298-1.377,3.356-1.873l-0.016-0.029
		c-1.38,0.123-2.638,0.152-4.246,0.152h-4.322v-1.269h10.332v1.361l-5.243,3.313c-1.149,0.727-2.331,1.424-3.449,1.95l0.015,0.048
		c1.303-0.078,2.545-0.109,4.262-0.109h4.416V492.977z"/>
</g>
<g>
	<path fill="#6DB6A0" d="M203.38,537.207l-10.332,2.65v-1.425l5.229-1.237c1.287-0.312,2.575-0.588,3.571-0.775v-0.031
		c-1.027-0.17-2.253-0.494-3.587-0.852l-5.212-1.394v-1.407l5.243-1.271c1.227-0.295,2.453-0.572,3.542-0.727v-0.031
		c-1.135-0.219-2.284-0.512-3.572-0.838l-5.212-1.377v-1.377l10.332,2.957v1.407L198,532.797c-1.319,0.326-2.331,0.543-3.374,0.685
		v0.028c1.027,0.188,2.04,0.42,3.374,0.806l5.379,1.485L203.38,537.207L203.38,537.207z"/>
	<path fill="#6DB6A0" d="M198.107,516.904c3.556,0,5.442,2.184,5.442,4.846c0,2.754-2.115,4.689-5.243,4.689
		c-3.28,0-5.426-2.06-5.426-4.845C192.88,518.746,195.041,516.904,198.107,516.904z M198.276,525c2.208,0,4.184-1.207,4.184-3.33
		c0-2.135-1.947-3.342-4.292-3.342c-2.054,0-4.2,1.084-4.2,3.328C193.968,523.885,196.007,525,198.276,525z"/>
	<path fill="#6DB6A0" d="M198.843,506.367c-1.441,0.076-3.174,0.17-4.462,0.151v0.05c1.212,0.354,2.5,0.789,3.925,1.313l5.013,1.844
		v1.023l-4.92,1.686c-1.458,0.494-2.792,0.914-4.018,1.207v0.031c1.289,0.031,3.021,0.111,4.57,0.203l4.429,0.277v1.284
		l-10.332-0.729v-1.717l4.998-1.781c1.272-0.434,2.407-0.791,3.479-1.053v-0.045c-1.042-0.267-2.177-0.636-3.479-1.103l-4.998-1.854
		v-1.722l10.332-0.649v1.313L198.843,506.367z"/>
	<path fill="#6DB6A0" d="M198.537,497.314v4.055h3.725v-4.519h1.118v5.865h-10.332v-5.635h1.12v4.287h3.265v-4.056h1.104V497.314z"
		/>
	<path fill="#6DB6A0" d="M203.38,495.104h-10.332v-1.469l5.229-3.346c1.21-0.773,2.299-1.377,3.356-1.873l-0.016-0.031
		c-1.378,0.125-2.636,0.156-4.246,0.156h-4.324v-1.27h10.332v1.36l-5.242,3.313c-1.15,0.729-2.331,1.424-3.45,1.948l0.016,0.048
		c1.302-0.078,2.544-0.107,4.261-0.107h4.415L203.38,495.104L203.38,495.104z"/>
</g>
<g>
	<path fill="#EF885A" d="M910.743,519.441c-0.125-0.589-0.217-1.517-0.217-2.461c0-1.347,0.229-2.214,0.752-2.863
		c0.397-0.541,1.012-0.867,1.821-0.867c0.998,0,1.873,0.666,2.271,1.764h0.029c0.248-0.987,1.059-2.149,2.592-2.149
		c0.889,0,1.563,0.356,2.068,0.883c0.659,0.729,0.967,1.904,0.967,3.604c0,0.929-0.062,1.642-0.123,2.091L910.743,519.441
		L910.743,519.441z M914.974,518.096v-1.223c0-1.424-0.735-2.262-1.731-2.262c-1.213,0-1.688,0.93-1.688,2.293
		c0,0.619,0.048,0.975,0.093,1.19L914.974,518.096L914.974,518.096z M919.925,518.096c0.045-0.262,0.062-0.649,0.062-1.129
		c0-1.395-0.506-2.68-2.008-2.68c-1.41,0-1.994,1.223-1.994,2.693v1.114L919.925,518.096L919.925,518.096z"/>
	<path fill="#EF885A" d="M915.663,502.139c3.557,0,5.44,2.185,5.44,4.845c0,2.758-2.114,4.69-5.241,4.69
		c-3.281,0-5.429-2.057-5.429-4.844C910.436,503.982,912.597,502.139,915.663,502.139z M915.831,510.236
		c2.209,0,4.186-1.209,4.186-3.33c0-2.135-1.946-3.344-4.293-3.344c-2.055,0-4.2,1.084-4.2,3.329
		C911.521,509.121,913.563,510.236,915.831,510.236z"/>
	<path fill="#EF885A" d="M920.938,498.504h-4.386l-5.948,3.299v-1.533l2.852-1.473c0.783-0.399,1.412-0.711,2.131-1.035v-0.03
		c-0.674-0.293-1.348-0.652-2.131-1.054l-2.852-1.502v-1.531l5.934,3.498h4.4V498.504z"/>
	<path fill="#EF885A" d="M919.313,492.84c0.366-0.604,0.674-1.483,0.674-2.412c0-1.379-0.722-2.184-1.763-2.184
		c-0.967,0-1.518,0.557-2.055,1.965c-0.598,1.703-1.473,2.756-2.928,2.756c-1.611,0-2.808-1.348-2.808-3.373
		c0-1.069,0.244-1.844,0.506-2.307l1.089,0.369c-0.185,0.342-0.49,1.039-0.49,1.981c0,1.424,0.844,1.968,1.549,1.968
		c0.967,0,1.441-0.636,1.994-2.074c0.674-1.767,1.519-2.662,3.033-2.662c1.596,0,2.975,1.19,2.975,3.652
		c0,1.008-0.291,2.104-0.66,2.661L919.313,492.84z"/>
</g>
<g>
	<path fill="#6DB6A0" d="M678.89,513.676c0.218,0.605,0.566,1.795,0.566,3.203c0,1.582-0.396,2.879-1.363,3.902
		c-0.856,0.896-2.235,1.455-3.846,1.455c-3.082-0.017-5.336-2.15-5.336-5.652c0-1.205,0.262-2.15,0.475-2.598l1.09,0.323
		c-0.245,0.558-0.444,1.255-0.444,2.308c0,2.539,1.563,4.195,4.153,4.195c2.621,0,4.171-1.595,4.171-4.025
		c0-0.881-0.123-1.486-0.275-1.795h-3.082v2.121h-1.074v-3.438L678.89,513.676L678.89,513.676z"/>
	<path fill="#6DB6A0" d="M669.019,510.273h10.332v1.348h-10.332V510.273z"/>
	<path fill="#6DB6A0" d="M669.155,507.922c-0.138-0.682-0.213-1.656-0.213-2.584c0-1.441,0.262-2.367,0.842-3.02
		c0.461-0.525,1.166-0.82,1.963-0.82c1.365,0,2.27,0.865,2.637,1.967h0.045c0.275-0.805,1.017-1.285,2.086-1.533
		c1.441-0.34,2.438-0.588,2.836-0.805v1.393c-0.291,0.173-1.18,0.402-2.467,0.697c-1.426,0.31-1.963,0.867-2.01,2.09v1.269h4.477
		v1.348L669.155,507.922L669.155,507.922z M673.862,506.574v-1.377c0-1.439-0.783-2.353-1.961-2.353
		c-1.334,0-1.916,0.974-1.935,2.398c0,0.647,0.063,1.113,0.125,1.33L673.862,506.574L673.862,506.574z"/>
	<path fill="#6DB6A0" d="M669.019,499.596v-1.346h9.214v-4.457h1.118v5.803H669.019z"/>
	<path fill="#6DB6A0" d="M677.724,492.479c0.369-0.604,0.679-1.485,0.679-2.415c0-1.378-0.722-2.185-1.765-2.185
		c-0.965,0-1.518,0.56-2.053,1.969c-0.598,1.701-1.473,2.757-2.93,2.757c-1.609,0-2.806-1.349-2.806-3.378
		c0-1.065,0.244-1.84,0.507-2.307l1.088,0.371c-0.187,0.342-0.49,1.039-0.49,1.984c0,1.424,0.844,1.965,1.549,1.965
		c0.965,0,1.441-0.635,1.99-2.076c0.676-1.764,1.52-2.66,3.035-2.66c1.596,0,2.977,1.191,2.977,3.654
		c0,1.004-0.291,2.104-0.66,2.662L677.724,492.479z"/>
</g>
<g>
	<path fill="#EF885A" d="M441.402,709.197c-1.441,0.076-3.174,0.17-4.459,0.151v0.048c1.21,0.354,2.497,0.791,3.924,1.315
		l5.012,1.844v1.021l-4.922,1.688c-1.456,0.494-2.789,0.912-4.014,1.207v0.031c1.285,0.031,3.018,0.109,4.566,0.203l4.43,0.277
		v1.282l-10.331-0.725v-1.719l4.995-1.781c1.273-0.435,2.408-0.789,3.482-1.051v-0.05c-1.043-0.264-2.175-0.633-3.482-1.1
		l-4.995-1.854v-1.72l10.331-0.649v1.315L441.402,709.197z"/>
	<path fill="#EF885A" d="M441.096,700.145v4.056h3.726v-4.521h1.119v5.867h-10.332v-5.635h1.12v4.287h3.264v-4.056L441.096,700.145
		L441.096,700.145z"/>
	<path fill="#EF885A" d="M445.939,697.934h-10.332v-1.469l5.228-3.346c1.211-0.773,2.298-1.379,3.356-1.875l-0.016-0.029
		c-1.38,0.123-2.638,0.154-4.245,0.154h-4.323v-1.271h10.332v1.363l-5.243,3.313c-1.149,0.729-2.331,1.424-3.449,1.948l0.015,0.047
		c1.305-0.077,2.546-0.106,4.262-0.106h4.416V697.934z"/>
</g>
<g>
	<path fill="#6DB6A0" d="M203.38,741.799l-10.332,2.646v-1.427l5.228-1.237c1.287-0.31,2.575-0.588,3.571-0.773v-0.031
		c-1.027-0.17-2.253-0.493-3.587-0.85l-5.212-1.396v-1.406l5.243-1.271c1.226-0.295,2.452-0.573,3.541-0.729v-0.029
		c-1.134-0.217-2.284-0.512-3.572-0.836l-5.212-1.377v-1.379l10.332,2.959v1.406l-5.38,1.314c-1.319,0.328-2.331,0.543-3.373,0.685
		v0.028c1.027,0.188,2.039,0.416,3.373,0.808l5.379,1.483L203.38,741.799L203.38,741.799z"/>
	<path fill="#6DB6A0" d="M198.107,721.492c3.556,0,5.442,2.184,5.442,4.846c0,2.754-2.115,4.691-5.243,4.691
		c-3.28,0-5.426-2.062-5.426-4.847C192.88,723.334,195.042,721.492,198.107,721.492z M198.276,729.588
		c2.208,0,4.185-1.207,4.185-3.328c0-2.137-1.948-3.344-4.292-3.344c-2.054,0-4.2,1.082-4.2,3.328
		C193.969,728.473,196.007,729.588,198.276,729.588z"/>
	<path fill="#6DB6A0" d="M198.844,710.955c-1.442,0.076-3.174,0.17-4.462,0.152v0.047c1.211,0.356,2.5,0.791,3.924,1.317
		l5.013,1.841v1.022l-4.92,1.687c-1.457,0.495-2.791,0.913-4.017,1.206v0.033c1.288,0.029,3.021,0.107,4.57,0.199l4.428,0.279v1.282
		l-10.332-0.725v-1.721l4.998-1.779c1.273-0.434,2.407-0.789,3.48-1.053v-0.045c-1.042-0.264-2.177-0.635-3.48-1.101l-4.998-1.856
		v-1.719l10.332-0.648v1.313L198.844,710.955z"/>
	<path fill="#6DB6A0" d="M198.537,701.902v4.057h3.725v-4.521h1.118v5.867h-10.332v-5.635h1.119v4.289h3.265v-4.057H198.537z"/>
	<path fill="#6DB6A0" d="M203.38,699.693h-10.332v-1.472l5.228-3.346c1.211-0.771,2.299-1.377,3.356-1.873l-0.015-0.031
		c-1.379,0.123-2.637,0.154-4.247,0.154h-4.323v-1.268h10.332v1.36l-5.242,3.313c-1.15,0.727-2.33,1.426-3.45,1.951l0.017,0.047
		c1.302-0.08,2.544-0.109,4.261-0.109h4.414L203.38,699.693L203.38,699.693z"/>
</g>
<g>
	<path fill="#EF885A" d="M910.741,724.014c-0.125-0.588-0.215-1.516-0.215-2.459c0-1.348,0.229-2.215,0.752-2.862
		c0.397-0.541,1.01-0.869,1.821-0.869c0.998,0,1.871,0.666,2.271,1.766h0.031c0.243-0.99,1.057-2.147,2.592-2.147
		c0.887,0,1.563,0.354,2.067,0.881c0.658,0.725,0.968,1.901,0.968,3.604c0,0.93-0.063,1.646-0.123,2.09h-10.164V724.014z
		 M914.972,722.668v-1.223c0-1.424-0.733-2.258-1.731-2.258c-1.211,0-1.688,0.926-1.688,2.288c0,0.619,0.047,0.976,0.095,1.191
		L914.972,722.668L914.972,722.668z M919.923,722.668c0.047-0.262,0.063-0.648,0.063-1.131c0-1.391-0.506-2.676-2.011-2.676
		c-1.409,0-1.991,1.221-1.991,2.692v1.113L919.923,722.668L919.923,722.668z"/>
	<path fill="#EF885A" d="M915.661,706.711c3.559,0,5.442,2.184,5.442,4.846c0,2.756-2.114,4.691-5.243,4.691
		c-3.279,0-5.429-2.061-5.429-4.846C910.433,708.555,912.595,706.711,915.661,706.711z M915.831,714.809
		c2.207,0,4.184-1.207,4.184-3.327c0-2.138-1.946-3.345-4.291-3.345c-2.055,0-4.2,1.084-4.2,3.326
		C911.521,713.691,913.563,714.809,915.831,714.809z"/>
	<path fill="#EF885A" d="M920.938,703.078h-4.386l-5.948,3.299v-1.535l2.85-1.469c0.785-0.406,1.414-0.715,2.133-1.039v-0.031
		c-0.676-0.295-1.348-0.647-2.133-1.051l-2.85-1.502v-1.533l5.934,3.498h4.4V703.078z"/>
	<path fill="#EF885A" d="M919.311,697.414c0.368-0.604,0.676-1.486,0.676-2.416c0-1.377-0.722-2.18-1.763-2.18
		c-0.967,0-1.52,0.555-2.057,1.965c-0.598,1.703-1.471,2.756-2.928,2.756c-1.609,0-2.808-1.348-2.808-3.377
		c0-1.066,0.246-1.84,0.506-2.305l1.091,0.37c-0.185,0.343-0.49,1.037-0.49,1.98c0,1.424,0.844,1.967,1.549,1.967
		c0.965,0,1.441-0.635,1.992-2.074c0.674-1.764,1.521-2.661,3.035-2.661c1.594,0,2.975,1.19,2.975,3.653
		c0,1.006-0.291,2.105-0.66,2.66L919.311,697.414z"/>
</g>
<g>
	<path fill="#6DB6A0" d="M678.89,719.088c0.218,0.604,0.568,1.795,0.568,3.203c0,1.58-0.398,2.879-1.363,3.9
		c-0.858,0.897-2.237,1.455-3.848,1.455c-3.082-0.017-5.334-2.15-5.334-5.65c0-1.205,0.26-2.15,0.473-2.6l1.091,0.323
		c-0.248,0.56-0.445,1.254-0.445,2.308c0,2.539,1.563,4.194,4.154,4.194c2.62,0,4.17-1.594,4.17-4.024
		c0-0.881-0.123-1.484-0.275-1.793h-3.082v2.119h-1.072v-3.437L678.89,719.088L678.89,719.088z"/>
	<path fill="#6DB6A0" d="M669.019,715.684h10.332v1.351h-10.332V715.684z"/>
	<path fill="#6DB6A0" d="M669.155,713.334c-0.138-0.682-0.213-1.656-0.213-2.586c0-1.439,0.262-2.367,0.842-3.018
		c0.461-0.527,1.166-0.822,1.963-0.822c1.365,0,2.27,0.867,2.637,1.967h0.045c0.275-0.805,1.017-1.285,2.086-1.531
		c1.441-0.342,2.438-0.59,2.836-0.809v1.395c-0.291,0.172-1.18,0.402-2.467,0.699c-1.426,0.309-1.963,0.865-2.01,2.088v1.271h4.477
		v1.348L669.155,713.334L669.155,713.334z M673.862,711.986v-1.377c0-1.441-0.781-2.354-1.961-2.354
		c-1.334,0-1.918,0.976-1.935,2.398c0,0.649,0.063,1.114,0.125,1.332L673.862,711.986L673.862,711.986z"/>
	<path fill="#6DB6A0" d="M669.019,705.008v-1.348h9.214v-4.457h1.118v5.805H669.019z"/>
	<path fill="#6DB6A0" d="M677.724,697.889c0.371-0.604,0.679-1.485,0.679-2.416c0-1.375-0.722-2.18-1.763-2.18
		c-0.967,0-1.52,0.557-2.055,1.965c-0.598,1.703-1.473,2.756-2.93,2.756c-1.607,0-2.806-1.346-2.806-3.377
		c0-1.065,0.244-1.84,0.506-2.305l1.089,0.371c-0.185,0.342-0.49,1.037-0.49,1.981c0,1.425,0.844,1.966,1.551,1.966
		c0.963,0,1.439-0.636,1.99-2.074c0.674-1.767,1.518-2.662,3.035-2.662c1.594,0,2.975,1.191,2.975,3.652
		c0,1.008-0.291,2.104-0.66,2.664L677.724,697.889z"/>
</g>
<rect x="197.017" y="151.972" fill="none" width="107.765" height="53.819"/>
<text transform="matrix(1 0 0 1 197.0166 161.5703)" fill="#767C6D" font-family="'Muli'" font-size="13.1676">Women and girls </text>
<text transform="matrix(1 0 0 1 197.0166 177.3721)" fill="#767C6D" font-family="'Muli'" font-size="13.1676">preference for </text>
<text transform="matrix(1 0 0 1 197.0166 193.1729)" fill="#767C6D" font-family="'Muli'" font-size="13.1676">political leaders</text>
<rect x="366.389" y="151.972" fill="none" width="115.665" height="89.622"/>
<text transform="matrix(1 0 0 1 366.3892 161.5703)" fill="#767C6D" font-family="'Muli'" font-size="13.1676">Women and girls </text>
<text transform="matrix(1 0 0 1 366.3892 177.3721)" fill="#767C6D" font-family="'Muli'" font-size="13.1676">preference for no </text>
<text transform="matrix(1 0 0 1 366.3892 193.1729)" fill="#767C6D" font-family="'Muli'" font-size="13.1676">gender preference</text>
<rect x="536.426" y="151.972" fill="none" width="113.216" height="89.622"/>
<text transform="matrix(1 0 0 1 536.4258 161.5703)" fill="#767C6D" font-family="'Muli'" font-size="13.1676">Men and boys </text>
<text transform="matrix(1 0 0 1 536.4258 177.3721)" fill="#767C6D" font-family="'Muli'" font-size="13.1676">preference for </text>
<text transform="matrix(1 0 0 1 536.4258 193.1729)" fill="#767C6D" font-family="'Muli'" font-size="13.1676">political leaders</text>
<rect x="705.8" y="151.972" fill="none" width="118.611" height="89.622"/>
<text transform="matrix(1 0 0 1 705.7988 161.5703)" fill="#767C6D" font-family="'Muli'" font-size="13.1676">Men and boys </text>
<text transform="matrix(1 0 0 1 705.7988 177.3721)" fill="#767C6D" font-family="'Muli'" font-size="13.1676">preference for no </text>
<text transform="matrix(1 0 0 1 705.7988 193.1729)" fill="#767C6D" font-family="'Muli'" font-size="13.1676">gender preference</text>
<rect x="1046.064" y="151.973" fill="none" width="93.507" height="89.622"/>
<text transform="matrix(1 0 0 1 1046.0645 161.5723)" fill="#767C6D" font-family="'Muli'" font-size="13.1676">Percentage of </text>
<text transform="matrix(1 0 0 1 1046.0645 177.373)" fill="#767C6D" font-family="'Muli'" font-size="13.1676">Men holding </text>
<text transform="matrix(1 0 0 1 1046.0645 193.1738)" fill="#767C6D" font-family="'Muli'" font-size="13.1676">political role</text>
<rect x="883.3" y="151.973" fill="none" width="115.056" height="89.622"/>
<text transform="matrix(1 0 0 1 883.3008 161.5723)" fill="#767C6D" font-family="'Muli'" font-size="13.1676">Percentage of </text>
<text transform="matrix(1 0 0 1 883.3008 177.373)" fill="#767C6D" font-family="'Muli'" font-size="13.1676">women holding </text>
<text transform="matrix(1 0 0 1 883.3008 193.1738)" fill="#767C6D" font-family="'Muli'" font-size="13.1676">political role</text>
<rect x="456.19" y="625.467" fill="none" width="319.131" height="35.544"/>
<text transform="matrix(1 0 0 1 475.3457 645.8789)" fill="#767C6D" font-family="'Muli'" font-size="28">STATE LEGISLATORS</text>
</svg>
