<?xml version="1.0" encoding="utf-8"?>
<!-- Generator: Adobe Illustrator 16.0.0, SVG Export Plug-In . SVG Version: 6.00 Build 0)  -->
<!DOCTYPE svg PUBLIC "-//W3C//DTD SVG 1.1//EN" "http://www.w3.org/Graphics/SVG/1.1/DTD/svg11.dtd">
<svg version="1.1" id="Layer_1" xmlns="http://www.w3.org/2000/svg" xmlns:xlink="http://www.w3.org/1999/xlink" x="0px" y="0px"
	 width="1280px" height="800px" viewBox="0 0 1280 800" enable-background="new 0 0 1280 800" xml:space="preserve">
<g>
	<path fill="#767C6D" d="M707.183,446.915c-4.488,0.24-9.885,0.525-13.891,0.478v0.145c3.769,1.097,7.782,2.435,12.219,4.058
		l15.61,5.679v3.152l-15.325,5.201c-4.533,1.525-8.684,2.815-12.504,3.725v0.092c4.006,0.095,9.402,0.336,14.222,0.622l13.798,0.863
		v3.959l-32.175-2.239v-5.302l15.562-5.49c3.966-1.337,7.495-2.434,10.837-3.247v-0.145c-3.244-0.813-6.777-1.955-10.837-3.388
		l-15.562-5.729v-5.298l32.175-2.007v4.059L707.183,446.915z"/>
	<path fill="#767C6D" d="M710.521,433.148c5.683-0.099,8.021-3.725,8.021-7.927c0-3.003-0.525-4.82-1.196-6.396l3.009-0.717
		c0.671,1.482,1.435,4.013,1.435,7.686c0,7.115-4.678,11.364-11.648,11.364c-6.968,0-12.457-4.109-12.457-10.837
		c0-7.545,6.635-9.551,10.885-9.551c0.855,0,1.526,0.098,1.953,0.145V433.148z M707.514,420.829
		c-2.671-0.046-6.825,1.099-6.825,5.825c0,4.252,3.918,6.113,6.825,6.445V420.829z"/>
	<path fill="#767C6D" d="M704.457,411.557c-2.386,0-4.34,0.047-6.248,0.188v-3.721l3.816-0.24v-0.097
		c-2.191-1.141-4.342-3.816-4.342-7.637c0-3.194,1.908-8.161,9.83-8.161h13.798v4.201h-13.314c-3.727,0-6.827,1.383-6.827,5.348
		c0,2.766,1.955,4.918,4.291,5.634c0.528,0.188,1.244,0.281,1.959,0.281h13.892v4.204H704.457z"/>
	<path fill="#767C6D" d="M689.137,370.625h32.175v4.156h-32.175V370.625z"/>
	<path fill="#767C6D" d="M704.457,363.03c-2.386,0-4.34,0.052-6.248,0.19v-3.722l3.816-0.237v-0.097
		c-2.191-1.144-4.342-3.818-4.342-7.639c0-3.195,1.908-8.163,9.83-8.163h13.798v4.204h-13.314c-3.727,0-6.827,1.384-6.827,5.348
		c0,2.765,1.955,4.917,4.291,5.633c0.528,0.188,1.244,0.283,1.959,0.283h13.892v4.2H704.457z"/>
	<path fill="#767C6D" d="M689.515,326.254c-0.332-2.001-0.616-4.63-0.616-7.972c0-4.104,0.952-7.11,2.677-9.021
		c1.526-1.765,3.864-2.814,6.726-2.814c2.916,0,5.205,0.86,6.875,2.479c2.338,2.197,3.534,5.776,3.534,9.835
		c0,1.243-0.046,2.387-0.284,3.343h12.886v4.151H689.515z M705.033,322.103c0.241-0.906,0.336-2.053,0.336-3.437
		c0-5.014-2.435-8.069-6.874-8.069c-4.252,0-6.303,3.009-6.303,7.591c0,1.815,0.146,3.2,0.333,3.915H705.033z"/>
	<path fill="#767C6D" d="M709.57,281.275c8.541,0,12.267,5.916,12.267,11.505c0,6.252-4.584,11.073-11.885,11.073
		c-7.733,0-12.269-5.061-12.269-11.456C697.684,285.758,702.504,281.275,709.57,281.275z M709.806,299.604
		c5.063,0,8.879-2.91,8.879-7.02c0-4.006-3.77-7.016-8.973-7.016c-3.916,0-8.876,1.956-8.876,6.924
		C700.836,297.455,705.414,299.604,709.806,299.604z"/>
	<path fill="#767C6D" d="M687.419,275.962v-4.203h33.893v4.203H687.419z"/>
	<path fill="#767C6D" d="M691.718,260.013c1.431-0.051,2.576,1.003,2.576,2.671c0,1.479-1.146,2.53-2.576,2.53
		c-1.48,0-2.627-1.097-2.627-2.627C689.091,261.016,690.237,260.013,691.718,260.013z M721.312,264.689h-23.103v-4.202h23.103
		V264.689z"/>
	<path fill="#767C6D" d="M691.575,248.453h6.634v-6.016h3.194v6.016h12.461c2.867,0,4.486-0.808,4.486-3.148
		c0-1.099-0.141-1.911-0.283-2.433l3.149-0.193c0.336,0.813,0.572,2.099,0.572,3.723c0,1.959-0.621,3.534-1.769,4.537
		c-1.238,1.193-3.289,1.621-6.014,1.621h-12.604v3.583h-3.194v-3.583h-5.539L691.575,248.453z"/>
	<path fill="#767C6D" d="M691.718,233.026c1.431-0.051,2.576,1.003,2.576,2.669c0,1.484-1.146,2.536-2.576,2.536
		c-1.48,0-2.627-1.102-2.627-2.629C689.091,234.03,690.237,233.026,691.718,233.026z M721.312,237.702h-23.103v-4.199h23.103
		V237.702z"/>
	<path fill="#767C6D" d="M720.45,210.058c0.575,1.101,1.339,3.538,1.339,6.639c0,6.965-4.726,11.505-11.786,11.505
		c-7.115,0-12.271-4.875-12.271-12.416c0-2.479,0.617-4.679,1.191-5.822l3.247,0.957c-0.572,1.003-1.096,2.572-1.096,4.865
		c0,5.303,3.912,8.163,8.731,8.163c5.347,0,8.643-3.436,8.643-8.018c0-2.387-0.621-3.961-1.147-5.159L720.45,210.058z"/>
	<path fill="#767C6D" d="M717.014,205.705c0.813-1.245,1.671-3.436,1.671-5.539c0-3.055-1.522-4.485-3.435-4.485
		c-2.006,0-3.103,1.193-4.248,4.294c-1.481,4.151-3.771,6.109-6.545,6.109c-3.718,0-6.773-3.008-6.773-7.972
		c0-2.335,0.665-4.388,1.431-5.679l3.056,1.051c-0.572,0.905-1.334,2.577-1.334,4.727c0,2.479,1.431,3.862,3.147,3.862
		c1.908,0,2.768-1.383,3.914-4.392c1.526-4.006,3.535-6.06,6.971-6.06c4.058,0,6.921,3.153,6.921,8.642
		c0,2.526-0.621,4.865-1.572,6.491L717.014,205.705z"/>
</g>
<g>
	<path fill="#767C6D" d="M173.127,536.652l-32.227,8.179v-4.398l16.304-3.828c4.015-0.951,8.033-1.816,11.14-2.39v-0.095
		c-3.203-0.528-7.028-1.527-11.188-2.63l-16.255-4.302v-4.352l16.352-3.921c3.825-0.906,7.647-1.771,11.045-2.245v-0.098
		c-3.54-0.671-7.124-1.577-11.141-2.583l-16.255-4.253v-4.255l32.227,9.132v4.349l-16.785,4.065
		c-4.111,1.002-7.267,1.672-10.518,2.105v0.093c3.202,0.575,6.359,1.292,10.518,2.483l16.785,4.594V536.652z"/>
	<path fill="#767C6D" d="M161.365,482.225c8.557,0,12.284,5.927,12.284,11.518c0,6.269-4.588,11.096-11.904,11.096
		c-7.744,0-12.286-5.069-12.286-11.474C149.458,486.717,154.286,482.225,161.365,482.225z M161.602,500.586
		c5.069,0,8.892-2.918,8.892-7.03c0-4.016-3.774-7.03-8.988-7.03c-3.921,0-8.892,1.964-8.892,6.932
		C152.614,498.431,157.204,500.586,161.602,500.586z"/>
	<path fill="#767C6D" d="M156.246,476.903c-2.39,0-4.35,0.045-6.262,0.188v-3.677l3.729-0.194v-0.141
		c-2.199-1.294-4.255-3.445-4.255-7.272c0-3.152,1.912-5.544,4.636-6.549v-0.092c-1.29-0.719-2.294-1.628-3.011-2.584
		c-1.053-1.384-1.625-2.917-1.625-5.116c0-3.061,2.007-7.604,10.041-7.604h13.628v4.113h-13.104c-4.444,0-7.123,1.627-7.123,5.02
		c0,2.391,1.771,4.256,3.826,4.971c0.574,0.194,1.339,0.336,2.104,0.336h14.298v4.113h-13.869c-3.68,0-6.358,1.623-6.358,4.829
		c0,2.625,2.104,4.541,4.209,5.212c0.62,0.237,1.337,0.334,2.055,0.334h13.963v4.112H156.246z"/>
	<path fill="#767C6D" d="M162.319,434.664c5.689-0.098,8.032-3.729,8.032-7.938c0-3.01-0.525-4.828-1.194-6.405l3.012-0.718
		c0.668,1.482,1.433,4.015,1.433,7.697c0,7.124-4.688,11.381-11.665,11.381c-6.981,0-12.479-4.115-12.479-10.854
		c0-7.555,6.645-9.564,10.901-9.564c0.859,0,1.529,0.099,1.959,0.146V434.664z M159.307,422.33
		c-2.677-0.049-6.836,1.098-6.836,5.832c0,4.256,3.92,6.118,6.836,6.455V422.33z"/>
	<path fill="#767C6D" d="M156.246,413.041c-2.39,0-4.35,0.049-6.262,0.19v-3.729l3.824-0.236v-0.099
		c-2.198-1.148-4.35-3.825-4.35-7.649c0-3.2,1.912-8.175,9.848-8.175h13.82v4.208h-13.341c-3.73,0-6.838,1.387-6.838,5.356
		c0,2.769,1.959,4.925,4.303,5.641c0.524,0.19,1.242,0.285,1.958,0.285h13.917v4.208H156.246z"/>
	<path fill="#767C6D" d="M140.9,372.046h32.227v4.16H140.9V372.046z"/>
	<path fill="#767C6D" d="M156.246,364.436c-2.39,0-4.35,0.049-6.262,0.193v-3.73l3.824-0.236v-0.098
		c-2.198-1.146-4.35-3.826-4.35-7.65c0-3.201,1.912-8.175,9.848-8.175h13.82v4.21h-13.341c-3.73,0-6.838,1.384-6.838,5.354
		c0,2.771,1.959,4.924,4.303,5.641c0.524,0.188,1.242,0.285,1.958,0.285h13.917v4.208H156.246z"/>
	<path fill="#767C6D" d="M141.282,327.601c-0.335-2.006-0.622-4.636-0.622-7.984c0-4.111,0.957-7.124,2.679-9.036
		c1.531-1.769,3.872-2.82,6.742-2.82c2.915,0,5.208,0.86,6.884,2.486c2.342,2.199,3.54,5.785,3.54,9.85
		c0,1.243-0.05,2.389-0.289,3.345h12.912v4.159H141.282z M156.82,323.442c0.241-0.907,0.335-2.055,0.335-3.442
		c0-5.02-2.44-8.079-6.885-8.079c-4.254,0-6.311,3.011-6.311,7.6c0,1.818,0.145,3.204,0.334,3.921H156.82z"/>
	<path fill="#767C6D" d="M161.365,282.551c8.557,0,12.284,5.927,12.284,11.521c0,6.263-4.588,11.093-11.904,11.093
		c-7.744,0-12.286-5.069-12.286-11.475C149.458,287.043,154.286,282.551,161.365,282.551z M161.602,300.911
		c5.069,0,8.892-2.918,8.892-7.028c0-4.016-3.774-7.03-8.988-7.03c-3.921,0-8.892,1.961-8.892,6.934
		C152.614,298.758,157.204,300.911,161.602,300.911z"/>
	<path fill="#767C6D" d="M139.179,277.23v-4.208h33.948v4.208H139.179z"/>
	<path fill="#767C6D" d="M143.481,261.254c1.436-0.049,2.583,1.006,2.583,2.678c0,1.482-1.148,2.534-2.583,2.534
		c-1.481,0-2.629-1.1-2.629-2.63C140.852,262.26,142,261.254,143.481,261.254z M173.127,265.939h-23.143v-4.207h23.143V265.939z"/>
	<path fill="#767C6D" d="M143.339,249.677h6.646v-6.024h3.203v6.024h12.479c2.868,0,4.493-0.812,4.493-3.156
		c0-1.1-0.14-1.912-0.283-2.437l3.154-0.192c0.333,0.814,0.572,2.104,0.572,3.729c0,1.961-0.622,3.539-1.768,4.543
		c-1.244,1.195-3.301,1.625-6.024,1.625h-12.623v3.585h-3.203v-3.585h-5.547L143.339,249.677z"/>
	<path fill="#767C6D" d="M143.481,234.226c1.436-0.049,2.583,1.003,2.583,2.676c0,1.483-1.148,2.534-2.583,2.534
		c-1.481,0-2.629-1.1-2.629-2.629C140.852,235.229,142,234.226,143.481,234.226z M173.127,238.911h-23.143v-4.208h23.143V238.911z"
		/>
	<path fill="#767C6D" d="M172.266,211.222c0.571,1.099,1.336,3.537,1.336,6.645c0,6.979-4.733,11.523-11.807,11.523
		c-7.124,0-12.289-4.878-12.289-12.432c0-2.485,0.62-4.686,1.195-5.832l3.252,0.956c-0.574,1.005-1.099,2.58-1.099,4.876
		c0,5.308,3.918,8.177,8.748,8.177c5.352,0,8.653-3.444,8.653-8.034c0-2.39-0.622-3.968-1.144-5.163L172.266,211.222z"/>
	<path fill="#767C6D" d="M168.822,206.86c0.811-1.244,1.672-3.444,1.672-5.548c0-3.06-1.53-4.492-3.442-4.492
		c-2.007,0-3.108,1.195-4.254,4.301c-1.482,4.159-3.776,6.12-6.552,6.12c-3.726,0-6.788-3.012-6.788-7.984
		c0-2.342,0.667-4.4,1.434-5.69l3.06,1.053c-0.574,0.907-1.338,2.582-1.338,4.731c0,2.489,1.435,3.875,3.157,3.875
		c1.91,0,2.769-1.386,3.919-4.399c1.529-4.015,3.538-6.071,6.981-6.071c4.066,0,6.931,3.156,6.931,8.654
		c0,2.532-0.622,4.876-1.579,6.502L168.822,206.86z"/>
</g>
<g id="background">
	<rect x="746.862" y="190.604" fill="#E3EFE5" width="375.393" height="375.381"/>
</g>
<g id="fedJblockM">
	<rect x="747.951" y="190.604" opacity="0.5" fill="#767C6D" enable-background="new    " width="375.396" height="285.303"/>
</g>
<g id="sLegblockM">
	<rect x="747.181" y="190.604" opacity="0.5" fill="#767C6D" enable-background="new    " width="375.396" height="284.553"/>
</g>
<g id="stJblockM">
	<rect x="747.951" y="190.604" opacity="0.5" fill="#767C6D" enable-background="new    " width="375.396" height="274.049"/>
</g>
<g id="govblockM">
	<rect x="747.181" y="190.604" opacity="0.5" fill="#767C6D" enable-background="new    " width="375.396" height="337.851"/>
</g>
<g id="houseblockM">
	<rect x="747.951" y="190.604" opacity="0.5" fill="#767C6D" enable-background="new    " width="375.396" height="304.062"/>
</g>
<g id="senateblockW">
	<rect x="747.951" y="190.604" opacity="0.5" fill="#767C6D" enable-background="new    " width="375.396" height="300.305"/>
</g>
<rect x="196.792" y="473.814" opacity="0.15" fill="#767C6D" width="375.392" height="90.097"/>
<g>
	<rect x="196.792" y="188.508" fill="#FFF0E1" width="375.392" height="375.403"/>
</g>
<rect x="196.792" y="473.056" opacity="0.15" fill="#767C6D" width="375.392" height="90.848"/>
<rect x="196.792" y="462.54" opacity="0.15" fill="#767C6D" width="375.392" height="101.363"/>
<rect x="196.792" y="526.378" opacity="0.15" fill="#767C6D" width="375.392" height="37.525"/>
<rect x="196.792" y="492.577" opacity="0.15" fill="#767C6D" width="375.392" height="71.323"/>
<rect x="195.7" y="488.677" opacity="0.15" fill="#767C6D" width="375.392" height="75.079"/>
</svg>
