<?xml version="1.0" encoding="utf-8"?>
<!-- Generator: Adobe Illustrator 16.0.0, SVG Export Plug-In . SVG Version: 6.00 Build 0)  -->
<!DOCTYPE svg PUBLIC "-//W3C//DTD SVG 1.1//EN" "http://www.w3.org/Graphics/SVG/1.1/DTD/svg11.dtd">
<svg version="1.1" xmlns="http://www.w3.org/2000/svg" xmlns:xlink="http://www.w3.org/1999/xlink" x="0px" y="0px" width="1280px"
	 height="800px" viewBox="0 0 1280 800" enable-background="new 0 0 1280 800" xml:space="preserve">
<g id="Layer_1">
	<rect fill="#F5F7F4" width="1280" height="800"/>
</g>
<g id="Layer_2">
	<rect x="35.703" y="-20.648" fill="#F5F7F4" width="0" height="0"/>
	
		<rect x="231.36" y="48.491" fill="none" stroke="#6DB6A0" stroke-width="4" stroke-miterlimit="10" width="127.311" height="127.308"/>
	
		<rect x="231.359" y="239.153" fill="none" stroke="#BBD5C3" stroke-width="4" stroke-miterlimit="10" width="127.313" height="127.311"/>
	
		<rect x="231.359" y="429.817" fill="none" stroke="#EF885A" stroke-width="4" stroke-miterlimit="10" width="127.313" height="127.311"/>
	
		<rect x="231.358" y="620.481" fill="none" stroke="#EDC9B1" stroke-width="4" stroke-miterlimit="10" width="127.316" height="127.311"/>
	<g>
		<rect x="635.694" y="214.672" fill="#FFF0E1" width="127.318" height="127.308"/>
		<rect x="635.694" y="299.217" opacity="0.4" fill="#767C6D" width="127.318" height="42.763"/>
	</g>
	<g>
		<rect x="635.697" y="485.477" fill="#E3EFE5" width="127.313" height="127.311"/>
		<rect x="635.697" y="485.477" opacity="0.4" fill="#767C6D" width="127.313" height="89.918"/>
	</g>
	<rect x="395.136" y="76.811" fill="none" width="141.504" height="70.667"/>
	<text transform="matrix(1 0 0 1 395.1362 89.415)"><tspan x="0" y="0" fill="#767C6D" font-family="'Muli'" font-size="17.2899">Women and girls </tspan><tspan x="0" y="20.748" fill="#767C6D" font-family="'Muli'" font-size="17.2899">preference for </tspan><tspan x="0" y="41.496" fill="#767C6D" font-family="'Muli'" font-size="17.2899">political leaders</tspan></text>
	<rect x="395.136" y="273.558" fill="none" width="151.875" height="117.681"/>
	<text transform="matrix(1 0 0 1 395.1367 286.1572)"><tspan x="0" y="0" fill="#767C6D" font-family="'Muli'" font-size="17.2899">Women and girls </tspan><tspan x="0" y="20.748" fill="#767C6D" font-family="'Muli'" font-size="17.2899">preference for no </tspan><tspan x="0" y="41.496" fill="#767C6D" font-family="'Muli'" font-size="17.2899">gender preference</tspan></text>
	<rect x="395.137" y="464.782" fill="none" width="148.66" height="117.682"/>
	<text transform="matrix(1 0 0 1 395.1362 477.3818)"><tspan x="0" y="0" fill="#767C6D" font-family="'Muli'" font-size="17.2899">Men and boys </tspan><tspan x="0" y="20.748" fill="#767C6D" font-family="'Muli'" font-size="17.2899">preference for </tspan><tspan x="0" y="41.495" fill="#767C6D" font-family="'Muli'" font-size="17.2899">political leaders</tspan></text>
	<rect x="395.136" y="653.855" fill="none" width="155.748" height="63.929"/>
	<text transform="matrix(1 0 0 1 395.1362 666.46)"><tspan x="0" y="0" fill="#767C6D" font-family="'Muli'" font-size="17.2899">Men and boys </tspan><tspan x="0" y="20.748" fill="#767C6D" font-family="'Muli'" font-size="17.2899">preference for no </tspan><tspan x="0" y="41.495" fill="#767C6D" font-family="'Muli'" font-size="17.2899">gender preference</tspan></text>
	<rect x="835.379" y="502.803" fill="none" width="122.781" height="117.68"/>
	<text transform="matrix(1 0 0 1 835.3789 515.4082)"><tspan x="0" y="0" fill="#767C6D" font-family="'Muli'" font-size="17.2899">Percentage of </tspan><tspan x="0" y="20.748" fill="#767C6D" font-family="'Muli'" font-size="17.2899">Men holding </tspan><tspan x="0" y="41.495" fill="#767C6D" font-family="'Muli'" font-size="17.2899">political role</tspan></text>
	<rect x="821.233" y="232.799" fill="none" width="151.073" height="117.679"/>
	<text transform="matrix(1 0 0 1 821.2334 245.4033)"><tspan x="0" y="0" fill="#767C6D" font-family="'Muli'" font-size="17.2899">Percentage of </tspan><tspan x="0" y="20.748" fill="#767C6D" font-family="'Muli'" font-size="17.2899">women holding </tspan><tspan x="0" y="41.496" fill="#767C6D" font-family="'Muli'" font-size="17.2899">political role</tspan></text>
</g>
</svg>
