<?xml version="1.0" encoding="utf-8"?>
<!-- Generator: Adobe Illustrator 16.0.0, SVG Export Plug-In . SVG Version: 6.00 Build 0)  -->
<!DOCTYPE svg PUBLIC "-//W3C//DTD SVG 1.1//EN" "http://www.w3.org/Graphics/SVG/1.1/DTD/svg11.dtd">
<svg version="1.1" id="Women" xmlns="http://www.w3.org/2000/svg" xmlns:xlink="http://www.w3.org/1999/xlink" x="0px" y="0px"
	 width="32.77px" height="200px" viewBox="0 0 32.77 200" enable-background="new 0 0 32.77 200" xml:space="preserve">
<g>
	<path fill="#6DB6A0" d="M29.66,159.901l-25.893,6.635v-3.57l13.102-3.105c3.223-0.773,6.451-1.473,8.947-1.938v-0.078
		c-2.572-0.426-5.646-1.242-8.988-2.133L3.767,152.22v-3.531l13.137-3.18c3.076-0.738,6.148-1.438,8.877-1.824v-0.076
		c-2.842-0.545-5.725-1.281-8.953-2.096L3.767,138.06v-3.453l25.893,7.412v3.529l-13.482,3.297
		c-3.305,0.816-5.842,1.359-8.455,1.707v0.076c2.574,0.467,5.111,1.049,8.455,2.02l13.482,3.725V159.901z"/>
	<path fill="#6DB6A0" d="M16.447,109.013c8.908,0,13.637,5.471,13.637,12.141c0,6.906-5.303,11.756-13.139,11.756
		c-8.221,0-13.6-5.158-13.6-12.143C3.345,113.63,8.759,109.013,16.447,109.013z M16.869,129.302c5.531,0,10.488-3.027,10.488-8.342
		c0-5.354-4.881-8.377-10.758-8.377c-5.15,0-10.527,2.713-10.527,8.34C6.072,126.509,11.179,129.302,16.869,129.302z"/>
	<path fill="#6DB6A0" d="M18.289,82.603c-3.611,0.193-7.953,0.426-11.182,0.389v0.117c3.035,0.893,6.264,1.977,9.838,3.295
		l12.563,4.617v2.561L17.173,97.81c-3.65,1.242-6.994,2.289-10.066,3.027v0.076c3.229,0.078,7.57,0.273,11.451,0.506l11.102,0.697
		v3.219l-25.893-1.822v-4.307l12.523-4.463c3.188-1.086,6.033-1.977,8.723-2.635v-0.115c-2.613-0.664-5.459-1.592-8.723-2.758
		L3.767,84.581v-4.305l25.893-1.631v3.297L18.289,82.603z"/>
	<path fill="#6DB6A0" d="M17.519,59.917v10.164h9.336V58.757h2.805v14.699H3.767V59.337H6.57v10.744h8.184V59.917H17.519z"/>
	<path fill="#6DB6A0" d="M29.66,54.376H3.767V50.69l13.102-8.381c3.035-1.938,5.76-3.449,8.41-4.691l-0.037-0.078
		c-3.457,0.309-6.607,0.387-10.641,0.387H3.767v-3.178H29.66v3.412l-13.137,8.303c-2.883,1.822-5.842,3.568-8.646,4.885l0.039,0.119
		c3.264-0.195,6.377-0.273,10.682-0.273H29.66V54.376z"/>
</g>
</svg>
