<?xml version="1.0" encoding="utf-8"?>
<!-- Generator: Adobe Illustrator 16.0.0, SVG Export Plug-In . SVG Version: 6.00 Build 0)  -->
<!DOCTYPE svg PUBLIC "-//W3C//DTD SVG 1.1//EN" "http://www.w3.org/Graphics/SVG/1.1/DTD/svg11.dtd">
<svg version="1.1" id="womenP" xmlns="http://www.w3.org/2000/svg" xmlns:xlink="http://www.w3.org/1999/xlink" x="0px" y="0px"
	 width="32.77px" height="200px" viewBox="0 0 32.77 200" enable-background="new 0 0 32.77 200" xml:space="preserve">
<g>
	<path fill="#767C6D" d="M24.187,196.735l-15.683,3.98v-2.141l7.934-1.863c1.954-0.463,3.909-0.884,5.421-1.163v-0.046
		c-1.559-0.257-3.42-0.743-5.444-1.279l-7.911-2.094v-2.118l7.958-1.907c1.861-0.441,3.722-0.862,5.375-1.093v-0.048
		c-1.723-0.326-3.467-0.768-5.422-1.257l-7.911-2.07v-2.07l15.683,4.444v2.116l-8.168,1.979c-2.001,0.487-3.537,0.813-5.119,1.024
		v0.045c1.558,0.28,3.095,0.629,5.119,1.209l8.168,2.235V196.735z"/>
	<path fill="#767C6D" d="M18.463,170.248c4.164,0,5.978,2.885,5.978,5.605c0,3.051-2.232,5.399-5.793,5.399
		c-3.769,0-5.979-2.467-5.979-5.584C12.669,172.435,15.019,170.248,18.463,170.248z M18.579,179.184c2.467,0,4.327-1.42,4.327-3.421
		c0-1.955-1.837-3.422-4.374-3.422c-1.908,0-4.327,0.956-4.327,3.374C14.205,178.135,16.438,179.184,18.579,179.184z"/>
	<path fill="#767C6D" d="M15.972,167.658c-1.163,0-2.117,0.022-3.047,0.093v-1.79l1.815-0.095v-0.068
		c-1.07-0.629-2.071-1.677-2.071-3.539c0-1.534,0.93-2.698,2.256-3.187v-0.045c-0.628-0.35-1.117-0.792-1.465-1.258
		c-0.512-0.674-0.791-1.419-0.791-2.489c0-1.489,0.977-3.7,4.886-3.7h6.632v2.002H17.81c-2.163,0-3.466,0.791-3.466,2.442
		c0,1.163,0.861,2.071,1.862,2.419c0.279,0.095,0.651,0.163,1.023,0.163h6.958v2.002h-6.749c-1.791,0-3.094,0.79-3.094,2.35
		c0,1.278,1.024,2.211,2.048,2.537c0.302,0.115,0.65,0.162,1,0.162h6.795v2.001H15.972z"/>
	<path fill="#767C6D" d="M18.927,147.103c2.769-0.047,3.909-1.814,3.909-3.862c0-1.465-0.256-2.35-0.581-3.117l1.466-0.35
		c0.325,0.722,0.697,1.954,0.697,3.746c0,3.467-2.281,5.538-5.677,5.538c-3.397,0-6.073-2.002-6.073-5.281
		c0-3.677,3.234-4.654,5.305-4.654c0.418,0,0.744,0.048,0.953,0.07V147.103z M17.461,141.101c-1.302-0.023-3.327,0.534-3.327,2.838
		c0,2.071,1.908,2.978,3.327,3.142V141.101z"/>
	<path fill="#767C6D" d="M15.972,136.58c-1.163,0-2.117,0.023-3.047,0.093v-1.814l1.861-0.115v-0.048
		c-1.07-0.559-2.117-1.861-2.117-3.723c0-1.558,0.93-3.979,4.792-3.979h6.726v2.048h-6.492c-1.815,0-3.328,0.675-3.328,2.606
		c0,1.348,0.954,2.396,2.094,2.745c0.255,0.093,0.604,0.139,0.953,0.139h6.772v2.048H15.972z"/>
	<path fill="#767C6D" d="M8.504,116.63h15.683v2.024H8.504V116.63z"/>
	<path fill="#767C6D" d="M15.972,112.927c-1.163,0-2.117,0.023-3.047,0.094v-1.815l1.861-0.115v-0.048
		c-1.07-0.558-2.117-1.861-2.117-3.723c0-1.558,0.93-3.979,4.792-3.979h6.726v2.049h-6.492c-1.815,0-3.328,0.674-3.328,2.605
		c0,1.349,0.954,2.396,2.094,2.745c0.255,0.092,0.604,0.139,0.953,0.139h6.772v2.048H15.972z"/>
	<path fill="#767C6D" d="M8.69,95.001c-0.163-0.977-0.303-2.256-0.303-3.886c0-2,0.465-3.467,1.304-4.397
		c0.745-0.861,1.884-1.373,3.281-1.373c1.418,0,2.535,0.418,3.35,1.209c1.14,1.07,1.723,2.815,1.723,4.793
		c0,0.605-0.024,1.163-0.141,1.628h6.283v2.024H8.69z M16.251,92.977c0.117-0.441,0.163-1,0.163-1.675
		c0-2.443-1.187-3.932-3.351-3.932c-2.07,0-3.071,1.465-3.071,3.699c0,0.885,0.07,1.559,0.163,1.908H16.251z"/>
	<path fill="#767C6D" d="M18.463,73.078c4.164,0,5.978,2.884,5.978,5.607c0,3.048-2.232,5.398-5.793,5.398
		c-3.769,0-5.979-2.467-5.979-5.584C12.669,75.264,15.019,73.078,18.463,73.078z M18.579,82.012c2.467,0,4.327-1.42,4.327-3.42
		c0-1.954-1.837-3.421-4.374-3.421c-1.908,0-4.327,0.954-4.327,3.375C14.205,80.964,16.438,82.012,18.579,82.012z"/>
	<path fill="#767C6D" d="M7.667,70.488V68.44h16.521v2.048H7.667z"/>
	<path fill="#767C6D" d="M9.76,62.713c0.699-0.024,1.257,0.489,1.257,1.303c0,0.722-0.559,1.233-1.257,1.233
		c-0.721,0-1.279-0.535-1.279-1.28C8.48,63.203,9.039,62.713,9.76,62.713z M24.187,64.993H12.925v-2.047h11.262V64.993z"/>
	<path fill="#767C6D" d="M9.691,57.079h3.234v-2.932h1.559v2.932h6.073c1.396,0,2.187-0.395,2.187-1.536
		c0-0.535-0.068-0.93-0.138-1.186l1.535-0.093c0.162,0.396,0.278,1.024,0.278,1.815c0,0.954-0.303,1.722-0.86,2.211
		c-0.605,0.582-1.606,0.791-2.932,0.791h-6.143v1.745h-1.559v-1.745h-2.7L9.691,57.079z"/>
	<path fill="#767C6D" d="M9.76,49.56c0.699-0.024,1.257,0.488,1.257,1.302c0,0.722-0.559,1.233-1.257,1.233
		c-0.721,0-1.279-0.535-1.279-1.28C8.48,50.048,9.039,49.56,9.76,49.56z M24.187,51.84H12.925v-2.048h11.262V51.84z"/>
	<path fill="#767C6D" d="M23.768,38.365c0.278,0.535,0.65,1.721,0.65,3.234c0,3.396-2.304,5.608-5.746,5.608
		c-3.467,0-5.98-2.374-5.98-6.05c0-1.209,0.302-2.28,0.582-2.838l1.582,0.465c-0.279,0.489-0.534,1.256-0.534,2.373
		c0,2.583,1.907,3.979,4.257,3.979c2.604,0,4.211-1.676,4.211-3.91c0-1.163-0.303-1.931-0.557-2.513L23.768,38.365z"/>
	<path fill="#767C6D" d="M22.092,36.242c0.395-0.605,0.813-1.676,0.813-2.7c0-1.489-0.744-2.186-1.675-2.186
		c-0.977,0-1.513,0.582-2.07,2.093c-0.722,2.024-1.838,2.978-3.188,2.978c-1.813,0-3.303-1.465-3.303-3.885
		c0-1.14,0.325-2.141,0.698-2.769l1.489,0.512c-0.279,0.441-0.651,1.256-0.651,2.303c0,1.211,0.698,1.886,1.536,1.886
		c0.93,0,1.348-0.675,1.908-2.141c0.744-1.954,1.722-2.955,3.397-2.955c1.979,0,3.373,1.536,3.373,4.211
		c0,1.232-0.303,2.373-0.769,3.164L22.092,36.242z"/>
</g>
</svg>
